<?xml version="1.0" encoding="UTF-8"?>
<svg width="44px" height="44px" viewBox="0 0 44 44" version="1.1" xmlns="http://www.w3.org/2000/svg" xmlns:xlink="http://www.w3.org/1999/xlink">
  <g transform="translate(-134.000000, -3589.000000)" fill="#F68938" stroke="#F68938">
    <g transform="translate(135.000000, 3590.000000)">
      <path d="M2.03230521,2.03240538 L20.3025754,38.7324473 L20.4571142,21.0857702 C20.4634219,20.7388293 20.739384,20.4628535 21.0847309,20.4581225 L38.7305382,20.3035761 L2.03230521,2.03240538 Z M20.9128459,42 C20.6778839,42 20.4571142,41.8706857 20.3451524,41.6546361 L0.067454816,0.911155392 C-0.0555454493,0.665142735 -0.00666072847,0.373396957 0.184147375,0.184156452 C0.374955479,-0.00666105679 0.671417657,-0.0555481872 0.911110481,0.0674581409 L41.652583,20.3445782 C41.9111989,20.4738926 42.0468146,20.7719464 41.9853144,21.0542301 C41.9175066,21.3365139 41.6651984,21.5415244 41.3750439,21.5415244 L21.7139246,21.7118409 L21.5467704,41.3755063 C21.5404627,41.6672521 21.3433468,41.9195728 21.0547693,41.987384 C21.0043077,42 20.9617306,42 20.9128459,42 Z" id="Fill-1"></path>
    </g>
  </g>
</svg>
