<?xml version="1.0" encoding="UTF-8"?>
<svg width="108px" height="131px" viewBox="0 0 108 131" version="1.1" xmlns="http://www.w3.org/2000/svg" xmlns:xlink="http://www.w3.org/1999/xlink">
    <!-- Generator: Sketch 49 (51002) - http://www.bohemiancoding.com/sketch -->
    <title>Page 1</title>
    <desc>Created with Sketch.</desc>
    <defs></defs>
    <g id="NEW" stroke="none" stroke-width="1" fill="none" fill-rule="evenodd">
        <g id="Home-Copy" transform="translate(-793.000000, -1305.000000)" fill="#FFFFFF" stroke="#FFFFFF">
            <g id="Page-1" transform="translate(793.669858, 1306.310709)">
                <path d="M53.0084385,76.5560352 C52.7571369,76.5560352 52.501782,76.4870524 52.2788531,76.3815493 L0.903875348,50.6550221 C0.34857973,50.3831487 0,49.8312863 0,49.2104411 C0,48.5895959 0.34857973,48.0377335 0.903875348,47.7496288 L41.8619937,27.257679 C42.652378,26.8640712 43.6332651,27.1805806 44.0304839,27.9880851 C44.4277026,28.7915319 44.1115489,29.7613489 43.3008984,30.1549567 L5.24085572,49.2104411 L53.0084385,73.1109529 L100.759808,49.2104411 L63.2064223,30.4146566 C62.3957718,30.0169911 62.079618,29.0350006 62.4768368,28.2396695 C62.8902686,27.4321649 63.8549427,27.1115978 64.66154,27.5133211 L105.113002,47.7496288 C105.652084,48.0215022 106.000664,48.5895959 106.000664,49.2104411 C106.000664,49.8150551 105.652084,50.3831487 105.113002,50.6550221 L53.721811,76.3815493 C53.4988821,76.4870524 53.2475805,76.5560352 53.0084385,76.5560352" id="Fill-1"></path>
                <path d="M53.0083888,128.378582 C52.7570715,128.378582 52.5017007,128.329069 52.2787579,128.213538 L0.900580217,102.058224 C0.0898791882,101.64974 -0.226294213,100.655352 0.170949291,99.846637 C0.56413929,99.0255442 1.54914104,98.7037088 2.33957454,99.108066 L52.9921748,124.879654 L103.660989,99.108066 C104.451423,98.7037088 105.436424,99.0255442 105.829614,99.846637 C106.226858,100.655352 105.910684,101.64974 105.104037,102.058224 L53.7218057,128.213538 C53.4988629,128.329069 53.2475456,128.378582 53.0083888,128.378582" id="Fill-4"></path>
                <path d="M104.225153,102.467309 C103.257897,102.467309 102.467309,101.750403 102.467309,100.878169 L102.467309,49.8942624 C102.467309,49.0100794 103.257897,48.2891914 104.225153,48.2891914 C105.210076,48.2891914 106.000664,49.0100794 106.000664,49.8942624 L106.000664,100.878169 C106.000664,101.750403 105.210076,102.467309 104.225153,102.467309" id="Fill-6"></path>
                <path d="M52.4202729,128.378582 C51.43535,128.378582 50.6447617,127.661413 50.6447617,126.788858 L50.6447617,75.7862047 C50.6447617,74.9176336 51.43535,74.2004649 52.4202729,74.2004649 C53.3875289,74.2004649 54.1781172,74.9176336 54.1781172,75.7862047 L54.1781172,126.788858 C54.1781172,127.67735 53.3875289,128.378582 52.4202729,128.378582" id="Fill-9"></path>
                <path d="M1.77551112,102.467309 C0.790588286,102.467309 0,101.750403 0,100.878169 L0,49.8942624 C0,49.0100794 0.790588286,48.2891914 1.77551112,48.2891914 C2.74276718,48.2891914 3.53335547,49.0100794 3.53335547,49.8942624 L3.53335547,100.878169 C3.53335547,101.750403 2.74276718,102.467309 1.77551112,102.467309" id="Fill-11"></path>
                <path d="M52.4202729,42.4002656 C51.43535,42.4002656 50.6447617,41.6795812 50.6447617,40.8107561 L50.6447617,1.60152089 C50.6447617,0.724688204 51.43535,0 52.4202729,0 C53.3875289,0 54.1781172,0.724688204 54.1781172,1.60152089 L54.1781172,40.8107561 C54.1781172,41.6795812 53.3875289,42.4002656 52.4202729,42.4002656" id="Fill-13"></path>
                <path d="M67.9008694,18.8445625 C67.4818047,18.8445625 67.0747133,18.687558 66.7634081,18.3735491 L52.4194216,3.88485427 L38.0594709,18.3735491 C37.4368604,19.001567 36.4231229,19.001567 35.8005125,18.3735491 C35.1779021,17.7415054 35.1779021,16.7229892 35.8005125,16.0869198 L51.2819603,0.475039174 C51.5932655,0.173107496 52.0003569,0 52.4194216,0 C52.8424775,0 53.2455778,0.173107496 53.5409186,0.475039174 L69.0223664,16.0869198 C69.6449768,16.7229892 69.6449768,17.7415054 69.0223664,18.3735491 C68.7110612,18.687558 68.3079609,18.8445625 67.9008694,18.8445625" id="Fill-16"></path>
            </g>
        </g>
    </g>
</svg>