<?xml version="1.0" encoding="UTF-8"?>
<svg width="86px" height="84px" viewBox="0 0 86 84" version="1.1" xmlns="http://www.w3.org/2000/svg" xmlns:xlink="http://www.w3.org/1999/xlink">
    <!-- Generator: Sketch 49 (51002) - http://www.bohemiancoding.com/sketch -->
    <title>Group 3</title>
    <desc>Created with Sketch.</desc>
    <defs></defs>
    <g id="NEW" stroke="none" stroke-width="1" fill="none" fill-rule="evenodd">
        <g id="Booking-V2-Copy-11" transform="translate(-676.000000, -2313.000000)">
            <g id="Group" transform="translate(660.000000, 2313.000000)">
                <g id="next-copy">
                    <g id="Group-3" transform="translate(16.000000, 0.000000)">
                        <g id="check" transform="translate(43.000000, 42.000000) rotate(-180.000000) translate(-43.000000, -42.000000) " fill="#F58939">
                            <path d="M79.7606636,41.8025414 C79.8901965,49.8169617 77.2738382,57.8313821 72,64.4006282 L76.204678,69 C83.0102938,60.974586 86.3092697,50.959309 85.9772133,41 L79.7606636,41.8025414 Z" id="Fill-1"></path>
                            <path d="M10.8643506,69.7842955 C18.4982014,78.2378386 29.0190097,83.2590248 40.4898129,83.9250799 C49.6015477,84.4536791 58.4411217,82.1735268 66,77.4525202 L61.8015361,72.8032737 C60.1572747,73.767487 58.4503649,74.6073835 56.686969,75.302749 C51.7264552,77.2584647 46.3479435,78.1286824 40.8554325,77.8092993 C31.0442961,77.240272 22.0455337,72.9457832 15.516758,65.7162048 C8.98900935,58.4856157 5.71178373,49.1861119 6.28999684,39.5308397 C6.72956204,32.2042336 9.35257496,25.33952 13.8006051,19.6472251 L9.60419523,15 C3.95352292,21.832371 0.61364899,30.2030362 0.0765167442,39.1710285 C-0.600290426,50.4596012 3.23049978,61.3317632 10.8643506,69.7842955" id="Fill-4"></path>
                            <path d="M25.1695143,11.5015534 C26.8843292,10.4583844 28.6614825,9.56687461 30.4866669,8.83419701 C44.4187718,3.24125388 60.974196,6.63821366 71.5022195,18.5168133 C74.8286335,22.270377 77.2424552,26.5219565 78.7661674,31 L85,30.1709984 C83.252483,24.5022257 80.3123623,19.108079 76.1326286,14.3912748 C63.8223422,0.50216686 44.4668029,-3.47068776 28.1781049,3.07012499 C25.7019449,4.06615663 23.2993645,5.31324564 21,6.79602114 L25.1695143,11.5015534 Z" id="Fill-7"></path>
                        </g>
                        <polygon id="Triangle" fill="#F68938" transform="translate(40.000000, 43.000000) rotate(-180.000000) translate(-40.000000, -43.000000) " points="53 43 27 61 27 25"></polygon>
                    </g>
                </g>
            </g>
        </g>
    </g>
</svg>