<?xml version="1.0" encoding="UTF-8"?>
<svg width="143px" height="97px" viewBox="0 0 143 97" version="1.1" xmlns="http://www.w3.org/2000/svg" xmlns:xlink="http://www.w3.org/1999/xlink">
    <!-- Generator: Sketch 49 (51002) - http://www.bohemiancoding.com/sketch -->
    <title>calendar</title>
    <desc>Created with Sketch.</desc>
    <defs></defs>
    <g id="NEW" stroke="none" stroke-width="1" fill="none" fill-rule="evenodd">
        <g id="Mobile-Home-menu" transform="translate(-88.000000, -666.000000)" fill="#FFFFFF" stroke="#FFFFFF">
            <g id="calendar" transform="translate(89.000000, 666.000000)">
                <path d="M121.470948,92.7430496 L137.047159,92.7430496 L137.047159,80.9387189 L121.470948,80.9387189 L121.470948,92.7430496 Z M101.92501,92.7430496 L117.501222,92.7430496 L117.501222,80.9387189 L101.92501,80.9387189 L101.92501,92.7430496 Z M82.3790732,92.7430496 L97.9552847,92.7430496 L97.9552847,80.9387189 L82.3790732,80.9387189 L82.3790732,92.7430496 Z M62.8331359,92.7430496 L78.4093474,92.7430496 L78.4093474,80.9387189 L62.8331359,80.9387189 L62.8331359,92.7430496 Z M43.2871985,92.7430496 L58.8634101,92.7430496 L58.8634101,80.9387189 L43.2871985,80.9387189 L43.2871985,92.7430496 Z M23.7412612,92.7430496 L39.3174728,92.7430496 L39.3174728,80.9387189 L23.7412612,80.9387189 L23.7412612,92.7430496 Z M4.19532393,92.7430496 L19.7715355,92.7430496 L19.7715355,80.9387189 L4.19532393,80.9387189 L4.19532393,92.7430496 Z M4.19532393,15.0537569 L137.042197,15.0537569 L137.042197,4.78912151 L4.19532393,4.78912151 L4.19532393,15.0537569 Z M121.470948,30.5906823 L137.047159,30.5906823 L137.047159,18.7863516 L121.470948,18.7863516 L121.470948,30.5906823 Z M121.470948,46.1276077 L137.047159,46.1276077 L137.047159,34.323277 L121.470948,34.323277 L121.470948,46.1276077 Z M121.470948,61.6691988 L137.047159,61.6691988 L137.047159,49.8602024 L121.470948,49.8602024 L121.470948,61.6691988 Z M121.470948,77.2061242 L137.047159,77.2061242 L137.047159,65.4017935 L121.470948,65.4017935 L121.470948,77.2061242 Z M101.92501,77.2061242 L117.501222,77.2061242 L117.501222,65.4017935 L101.92501,65.4017935 L101.92501,77.2061242 Z M82.3790732,77.2061242 L97.9552847,77.2061242 L97.9552847,65.4017935 L82.3790732,65.4017935 L82.3790732,77.2061242 Z M62.8331359,77.2061242 L78.4093474,77.2061242 L78.4093474,65.4017935 L62.8331359,65.4017935 L62.8331359,77.2061242 Z M43.2871985,77.2061242 L58.8634101,77.2061242 L58.8634101,65.4017935 L43.2871985,65.4017935 L43.2871985,77.2061242 Z M23.7412612,77.2061242 L39.3174728,77.2061242 L39.3174728,65.4017935 L23.7412612,65.4017935 L23.7412612,77.2061242 Z M4.19532393,77.2061242 L19.7715355,77.2061242 L19.7715355,65.4017935 L4.19532393,65.4017935 L4.19532393,77.2061242 Z M4.19532393,61.6691988 L19.7715355,61.6691988 L19.7715355,49.8602024 L4.19532393,49.8602024 L4.19532393,61.6691988 Z M4.19532393,46.1276077 L19.7715355,46.1276077 L19.7715355,34.323277 L4.19532393,34.323277 L4.19532393,46.1276077 Z M4.19532393,30.5906823 L19.7715355,30.5906823 L19.7715355,18.7863516 L4.19532393,18.7863516 L4.19532393,30.5906823 Z M101.92501,46.1276077 L117.501222,46.1276077 L117.501222,34.323277 L101.92501,34.323277 L101.92501,46.1276077 Z M101.92501,61.6691988 L117.501222,61.6691988 L117.501222,49.8602024 L101.92501,49.8602024 L101.92501,61.6691988 Z M82.3790732,61.6691988 L97.9552847,61.6691988 L97.9552847,49.8602024 L82.3790732,49.8602024 L82.3790732,61.6691988 Z M62.8331359,61.6691988 L78.4093474,61.6691988 L78.4093474,49.8602024 L62.8331359,49.8602024 L62.8331359,61.6691988 Z M43.2871985,61.6691988 L58.8634101,61.6691988 L58.8634101,49.8602024 L43.2871985,49.8602024 L43.2871985,61.6691988 Z M23.7412612,61.6691988 L39.3174728,61.6691988 L39.3174728,49.8602024 L23.7412612,49.8602024 L23.7412612,61.6691988 Z M23.7412612,46.1276077 L39.3174728,46.1276077 L39.3174728,34.323277 L23.7412612,34.323277 L23.7412612,46.1276077 Z M43.2871985,46.1276077 L58.8634101,46.1276077 L58.8634101,34.323277 L43.2871985,34.323277 L43.2871985,46.1276077 Z M82.3790732,46.1276077 L97.9552847,46.1276077 L97.9552847,34.323277 L82.3790732,34.323277 L82.3790732,46.1276077 Z M62.8331359,46.1276077 L78.4093474,46.1276077 L78.4093474,34.323277 L62.8331359,34.323277 L62.8331359,46.1276077 Z M101.92501,30.5906823 L117.501222,30.5906823 L117.501222,18.7863516 L101.92501,18.7863516 L101.92501,30.5906823 Z M82.3790732,30.5906823 L97.9552847,30.5906823 L97.9552847,18.7863516 L82.3790732,18.7863516 L82.3790732,30.5906823 Z M62.8331359,30.5906823 L78.4093474,30.5906823 L78.4093474,18.7863516 L62.8331359,18.7863516 L62.8331359,30.5906823 Z M43.2871985,30.5906823 L58.8634101,30.5906823 L58.8634101,18.7863516 L43.2871985,18.7863516 L43.2871985,30.5906823 Z M23.7412612,30.5906823 L39.3174728,30.5906823 L39.3174728,18.7863516 L23.7412612,18.7863516 L23.7412612,30.5906823 Z M139.02706,1.05652682 L2.21046104,1.05652682 C1.11382429,1.05652682 0.225598148,1.89636063 0.225598148,2.92282417 L0.225598148,94.6093469 C0.225598148,95.6404762 1.11382429,96.4756443 2.21046104,96.4756443 L139.02706,96.4756443 C140.123697,96.4756443 141.011923,95.6404762 141.011923,94.6093469 L141.011923,2.92282417 C141.011923,1.89636063 140.123697,1.05652682 139.02706,1.05652682 Z" id="Page-1"></path>
            </g>
        </g>
    </g>
</svg>