<?xml version="1.0" encoding="UTF-8"?>
<svg width="62px" height="60px" viewBox="0 0 62 60" version="1.1" xmlns="http://www.w3.org/2000/svg" xmlns:xlink="http://www.w3.org/1999/xlink">
    <!-- Generator: Sketch 49 (51002) - http://www.bohemiancoding.com/sketch -->
    <title>check</title>
    <desc>Created with Sketch.</desc>
    <defs></defs>
    <g id="NEW" stroke="none" stroke-width="1" fill="none" fill-rule="evenodd">
        <g id="Booking-V2-Copy-11" transform="translate(-689.000000, -1275.000000)">
            <g id="Group-2" transform="translate(660.000000, 1275.000000)">
                <g id="check" transform="translate(29.000000, 0.000000)">
                    <path d="M57.499028,29.5783315 C57.590812,35.3537244 55.7369206,41.1291173 52,45.8630814 L54.9793382,49.1775044 C59.8016412,43.3941891 62.1392198,36.1769286 61.9039322,29 L57.499028,29.5783315 Z" id="Fill-1" fill="#F58939"></path>
                    <path d="M24.4380066,44 C23.2580121,44 22.2473726,42.7583451 21.189432,41.4592531 C20.3021133,40.3692153 19.1356334,38.8255933 17.7229342,36.870198 C15.3359161,33.5671426 13.0232282,30.1639946 13,30.1302081 L15.9711028,28.1123077 C19.0490554,32.6443481 22.7630395,37.8010168 24.4848854,39.8134269 C28.0328931,36.5817455 39.6018225,25.5580462 47.4892874,18 L49.9738642,20.593116 C26.4140961,43.1705407 25.6239137,43.6034306 25.3641798,43.745334 C25.0423631,43.921024 24.7349057,44 24.4380066,44" id="Page-1" fill="#F68938"></path>
                    <path d="M7.80684175,49.8597926 C13.2923298,55.85609 20.8523109,59.4177358 29.0949338,59.8901844 C35.6423911,60.2651322 41.9942807,58.6477665 47.4258954,55.2990451 L44.4089876,52.0012249 C43.2274639,52.6851642 42.0009226,53.2809225 40.7337918,53.7741617 C37.1692947,55.161397 33.3044352,55.7786629 29.3576586,55.552117 C22.3076294,55.1484925 15.8413511,52.1023103 11.1499416,46.9741999 C6.45926995,41.8453726 4.10434027,35.2490153 4.51982927,28.400303 C4.83568947,23.2033686 6.72051881,18.3340653 9.91675838,14.2963864 L6.90132664,11 C2.84089946,15.8463618 0.440952315,21.783872 0.0549829561,28.1450804 C-0.431353196,36.1523312 2.32135371,43.8642121 7.80684175,49.8597926" id="Fill-4" fill="#F58939"></path>
                    <path d="M17.9968384,8.1623927 C19.2293616,7.42207926 20.5066905,6.78939488 21.8185418,6.26943013 C31.8322422,2.30024469 43.7314534,4.71099034 51.2984703,13.1409643 C53.6893303,15.8047837 55.4242647,18.8220336 56.5194328,22 L61,21.4116763 C59.7439722,17.3886763 57.6307604,13.5605722 54.6265768,10.2131628 C45.7785584,0.356376481 31.8667646,-2.46306873 20.1592629,2.17879838 C18.3795229,2.88565955 16.6526682,3.77069045 15,4.82298275 L17.9968384,8.1623927 Z" id="Fill-7" fill="#F58939"></path>
                </g>
            </g>
        </g>
    </g>
</svg>