<svg xmlns="http://www.w3.org/2000/svg" viewBox="0 0 34.69 34.63"><defs><style>.cls-1{fill:#fff}</style></defs><title>Asset 13</title><g id="Layer_2" data-name="Layer 2"><g id="Layer_1-2" data-name="Layer 1"><path class="cls-1" d="M20.36 16.24a3.17 3.17 0 1 1-4.06-1.91 3.16 3.16 0 0 1 4.06 1.91M2 18.59a15.43 15.43 0 0 1 8.28-15l-.65-1.8A17.45 17.45 0 0 0 .07 19.05zM14.21 2.23a15.38 15.38 0 0 1 13.3 3.48l1.3-1.34a16.55 16.55 0 0 0-4.06-2.71A17.18 17.18 0 0 0 13.56.43zm19.45 9.22a15.83 15.83 0 0 0-2.29-4.25l-1.5 1.09a15.15 15.15 0 0 1 2 3.8A15.43 15.43 0 0 1 24.55 31l.65 1.8a17.32 17.32 0 0 0 8.46-21.31M20.65 32.38a15.43 15.43 0 0 1-16.6-7.33l-1.76.86A16.6 16.6 0 0 0 10 33a17.07 17.07 0 0 0 11.28 1.2z"/><path class="cls-1" d="M6.92 13.32a11.23 11.23 0 0 1 4.82-5.68l-.65-1.81a13.09 13.09 0 0 0-6 7zm22.78-.44A13.11 13.11 0 0 0 15 4.44l.65 1.81a11.06 11.06 0 0 1 6.5.93 11.2 11.2 0 0 1 1 19.76l.65 1.81a13.11 13.11 0 0 0 5.9-15.87M19.2 28.36a11.05 11.05 0 0 1-1.81.15 11.2 11.2 0 0 1-11.2-11.76l-1.93-.21a12.16 12.16 0 0 0 .8 5.21 13.12 13.12 0 0 0 12.33 8.66 12.82 12.82 0 0 0 2.46-.24z"/><path class="cls-1" d="M24 19.72c-.07.19-.15.39-.24.58a6.91 6.91 0 0 1-2.08 2.58l.67 1.85A9 9 0 0 0 25.86 20zm-6.89-9.42h.27a6.9 6.9 0 0 1 3 .67 7 7 0 0 1 3.62 4c.06.17.11.34.16.51l2-.07a6.14 6.14 0 0 0-.34-1.08 8.91 8.91 0 0 0-9.31-5.85zm.63 14.02h-.36a7 7 0 0 1-4.18-12.64l-.67-1.84a8.91 8.91 0 0 0 4.86 16.38 8.72 8.72 0 0 0 1-.06z"/></g></g></svg>