<?xml version="1.0" encoding="UTF-8"?>
<svg width="248px" height="248px" viewBox="0 0 248 248" version="1.1" xmlns="http://www.w3.org/2000/svg" xmlns:xlink="http://www.w3.org/1999/xlink">
    <!-- Generator: Sketch 49 (51002) - http://www.bohemiancoding.com/sketch -->
    <title>Page 1</title>
    <desc>Created with Sketch.</desc>
    <defs>
        <polygon id="path-1" points="0 0.207537999 0 123.226361 73.552487 123.226361 73.552487 0.207537999"></polygon>
    </defs>
    <g id="NEW" stroke="none" stroke-width="1" fill="none" fill-rule="evenodd">
        <g id="Home-Copy" transform="translate(-44.000000, -3617.000000)">
            <g id="Group-14-Copy" transform="translate(44.000000, 3617.000000)">
                <g id="Page-1">
                    <g>
                        <path d="M145.482191,116.606977 C149.725148,128.388127 143.611409,141.379467 131.826017,145.621867 C120.040626,149.861572 107.050278,143.748635 102.807322,131.967484 C98.5643652,120.183638 104.678104,107.194994 116.463496,102.952594 C128.246191,98.7101935 141.239235,104.823131 145.482191,116.606977" id="Fill-31" fill="#1D5480"></path>
                        <g id="Group-35" transform="translate(0.000000, 13.476493)">
                            <mask id="mask-2" fill="white">
                                <use xlink:href="#path-1"></use>
                            </mask>
                            <g id="Clip-34"></g>
                            <path d="M14.4206609,119.927315 C10.7977043,76.2095705 33.8131826,33.5564687 73.552487,13.0344645 L68.9348348,0.207537999 C22.4348348,23.370935 -4.08768696,72.514316 0.513791304,123.226361 L14.4206609,119.927315 Z" id="Fill-33" fill="#F58938" mask="url(#mask-2)"></path>
                        </g>
                        <path d="M101.49373,16.56288 C109.011904,14.9780444 116.55973,14.1964077 124.03747,14.1964077 C150.794513,14.1964077 176.5946,24.0261621 196.537035,41.3731045 L205.804687,31.8263565 C196.984513,23.9587796 187.784252,17.6113512 176.788687,12.4363777 C151.535817,0.55550106 123.651991,-2.4147181 96.8626,3.70091463 L101.49373,16.56288 Z" id="Fill-36" fill="#F58938"></path>
                        <path d="M240.468617,82.4165739 C236.309226,70.8591331 231.200965,61.6115633 224.09253,52.008214 L213.388096,59.8084084 C219.286183,67.9643823 224.157226,77.066406 227.734357,87.001277 C237.697487,114.665823 236.284965,144.55399 223.763661,171.161979 C213.423139,193.128663 196.516009,210.669667 175.363226,221.731173 L179.991661,234.590443 C204.530183,222.232498 224.124878,202.17139 236.010009,176.921832 C250.07053,147.047141 251.652878,113.482587 240.468617,82.4165739" id="Fill-38" fill="#F58938"></path>
                        <path d="M147.490991,231.878164 C123.928296,237.039661 99.4571652,234.333581 77.2638609,223.891994 C56.7176,214.223957 40.0530783,198.806849 28.9281217,179.55433 L16.3852522,185.68883 C29.1518609,208.458713 47.4580348,224.821872 71.5032522,236.136736 C88.2297739,244.007008 106.110035,247.966402 124.063078,247.966402 C133.443948,247.966402 142.840991,246.861329 152.103252,244.691614 L147.490991,231.878164 Z" id="Fill-40" fill="#F58938"></path>
                        <path d="M49.4509304,95.7830992 C55.8504087,79.0587708 67.7840609,64.5472826 83.8771043,55.1811197 L79.2163217,42.2490765 C58.8264087,53.3968319 43.8547565,71.5038485 36.2503217,92.4274523 L49.4509304,95.7830992 Z" id="Fill-42" fill="#F58938"></path>
                        <path d="M212.156183,92.6077678 C203.691835,69.1020679 186.579835,50.2969689 163.974096,39.6613203 C146.015661,31.2115589 126.296965,28.73997 107.165922,32.313936 L111.818617,45.2405885 C115.929487,44.5910216 120.064617,44.2487186 124.197052,44.2487186 C135.815313,44.2487186 147.387748,46.8119477 158.210791,51.9060622 C177.546704,61.0026953 192.1814,77.0882379 199.421922,97.1924708 C206.659748,117.296704 205.6354,139.015421 196.534878,158.348798 C189.628617,173.019309 178.695052,184.975654 165.038878,193.056159 L169.691574,205.977421 C186.711922,196.53579 200.330357,182.067427 208.781226,164.111347 C219.41827,141.505877 220.617835,116.113468 212.156183,92.6077678" id="Fill-44" fill="#F58938"></path>
                        <path d="M137.171496,203.212314 C132.84767,203.926569 128.518452,204.287739 124.221583,204.287739 C91.4289739,204.282348 60.5988,183.959796 48.8673217,151.381721 C45.1608,141.088375 43.7105391,130.525499 44.2469739,120.229458 L30.4155826,118.763216 C29.8414087,133.943138 31.4749739,143.02899 36.1330609,155.966424 C49.8485391,194.05908 85.8948,217.820833 124.235061,217.820833 C130.065757,217.820833 135.950365,217.24943 141.8188,216.114709 L137.171496,203.212314 Z" id="Fill-46" fill="#F58938"></path>
                        <path d="M171.204104,141.456822 C170.689235,142.858378 170.120452,144.249152 169.476191,145.615668 C166.004191,152.992701 160.901322,159.264661 154.604278,164.073074 L159.356713,177.274647 C172.015496,168.865315 179.582191,157.747207 184.757843,143.60228 L171.204104,141.456822 Z" id="Fill-48" fill="#F58938"></path>
                        <path d="M122.249443,74.2096589 C122.891009,74.1854012 123.53527,74.1665341 124.176835,74.1665341 C131.4524,74.1665341 138.701009,75.7729321 145.477878,78.9614705 C157.584052,84.6593319 166.74927,94.7289678 171.280661,107.318708 C171.717357,108.528897 172.089357,109.749867 172.429009,110.973533 L186.484139,110.482989 C185.877617,107.501988 185.077009,105.682662 184.017617,102.7367 C178.259704,86.7454931 166.617183,73.9536055 151.238487,66.7167285 C140.550226,61.6873012 128.942748,59.7682485 117.491617,60.9919141 L122.249443,74.2096589 Z" id="Fill-50" fill="#F58938"></path>
                        <path d="M126.76547,174.307662 C125.905557,174.353482 125.048339,174.38313 124.193817,174.38313 C103.658339,174.380435 84.3520783,161.65593 77.0091217,141.252519 C69.3561652,120.000088 77.0172087,96.9040739 94.2774696,84.0744521 L89.5358174,70.907918 C65.2938174,86.6215094 54.074513,117.515023 64.2721652,145.837222 C73.6018174,171.752519 98.1241652,187.91353 124.207296,187.91353 C126.630687,187.91353 129.067557,187.762593 131.507122,187.479586 L126.76547,174.307662 Z" id="Fill-52" fill="#F58938"></path>
                    </g>
                </g>
            </g>
        </g>
    </g>
</svg>