<?xml version="1.0" encoding="UTF-8"?>
<svg width="173px" height="44px" viewBox="0 0 173 44" version="1.1" xmlns="http://www.w3.org/2000/svg" xmlns:xlink="http://www.w3.org/1999/xlink">
    <!-- Generator: Sketch 49 (51002) - http://www.bohemiancoding.com/sketch -->
    <title>Page 1</title>
    <desc>Created with Sketch.</desc>
    <defs></defs>
    <g id="NEW" stroke="none" stroke-width="1" fill="none" fill-rule="evenodd">
        <g id="Home-Copy" transform="translate(-226.000000, -3790.000000)" fill="#FEFEFE">
            <g id="Group-14-Copy" transform="translate(0.000000, 3733.000000)">
                <g id="Page-1" transform="translate(226.000000, 57.000000)">
                    <path d="M0,16.280795 L2.39424066,16.280795 L2.39424066,3.71920499 L0,3.71920499 L0,1 L8.4484059,1 C14.9070963,1 18,4.66489485 18,10.0145597 C18,15.3323319 14.9070963,19 8.4484059,19 L0,19 L0,16.280795 Z M8.4484059,16.280795 C12.6554679,16.280795 14.5258828,13.9151837 14.5258828,10.0145597 C14.5258828,6.08204299 12.6554679,3.71920499 8.4484059,3.71920499 L5.78745286,3.71920499 L5.78745286,16.280795 L8.4484059,16.280795 Z" id="Fill-1"></path>
                    <polygon id="Fill-3" points="20 16.280795 22.341071 16.280795 22.341071 3.71920499 20 3.71920499 20 1 28 1 28 3.71920499 25.658929 3.71920499 25.658929 16.280795 28 16.280795 28 19 20 19"></polygon>
                    <path d="M29,16.280795 L31.1888347,16.280795 L36.4071588,3.71920499 L33.8866179,3.71920499 L33.8866179,1 L41.4418345,1 L47.7812691,16.280795 L50,16.280795 L50,19 L41.7137482,19 L41.7137482,16.280795 L44.1446004,16.280795 L43.1715477,13.8264386 L35.5864348,13.8264386 L34.6133821,16.280795 L37.0442343,16.280795 L37.0442343,19 L29,19 L29,16.280795 Z M42.1088062,11.1072336 L39.376144,4.31130113 L36.6783608,11.1072336 L42.1088062,11.1072336 Z" id="Fill-4"></path>
                    <path d="M50,9.6049218 C50,3.81028093 53.4792202,0 59.6256612,0 C62.4676591,0 65.0736739,0.808390779 66.5841016,1.62030242 L66.5841016,6.33262916 L63.4211123,6.33262916 L63.4211123,3.51171151 C62.3778903,3.17934178 61.0748829,2.88147654 59.7106695,2.88147654 C55.6839958,2.88147654 53.3942119,5.40382477 53.3942119,9.54365874 C53.3942119,13.9581202 55.9995466,16.0593729 59.7718755,16.0593729 C61.0463201,16.0593729 62.2643192,15.7882663 63.4211123,15.3974502 L63.4211123,11.5259062 L59.7385522,11.5259062 L59.7385522,8.82540212 L68,8.82540212 L68,11.5259062 L66.5507783,11.5259062 L66.5507783,17.2275962 C65.2198882,18.0099325 62.7267644,19 59.5970984,19 C53.8280943,19 50,15.6685568 50,9.6049218" id="Fill-5"></path>
                    <polygon id="Fill-7" points="71 16.280795 73.3920266 16.280795 73.3920266 3.71920499 71 3.71920499 71 1 76.8677261 1 85.3932596 13.4409522 85.3932596 3.71920499 83.001918 3.71920499 83.001918 1 91 1 91 3.71920499 88.6079734 3.71920499 88.6079734 19 85.5980751 19 76.6060554 5.99607118 76.6060554 16.280795 78.998082 16.280795 78.998082 19 71 19"></polygon>
                    <g id="Group-12" transform="translate(92.000000, 0.000000)">
                        <path d="M0.4221,10.1557143 C0.4221,4.46357143 4.3582,0.504285714 9.8777,0.504285714 C15.3692,0.504285714 19.3389,4.46357143 19.3389,10.1557143 C19.3389,15.8478571 15.3692,19.7771429 9.8777,19.7771429 C4.3582,19.7771429 0.4221,15.8478571 0.4221,10.1557143 M15.7871,10.1557143 C15.7871,6.01571429 13.2503,3.45714286 9.8777,3.45714286 C6.4764,3.45714286 3.9739,6.01571429 3.9739,10.1557143 C3.9739,14.3257143 6.4764,16.8242857 9.8777,16.8242857 C13.2503,16.8242857 15.7871,14.3257143 15.7871,10.1557143" id="Fill-8"></path>
                        <path d="M21.58891,18.7733571 L21.58891,14.1447857 L24.68851,14.1447857 L24.68851,16.5819286 C25.34511,16.7305 26.45251,16.9755 27.82311,16.9755 C29.76211,16.9755 31.58421,16.4876429 31.58421,14.6626429 C31.58421,10.4283571 21.82691,12.7140714 21.82691,5.89121429 C21.82691,1.99407143 25.04831,0.504071429 28.63021,0.504071429 C30.68961,0.504071429 32.92541,0.992642857 34.41711,1.50835714 L34.41711,6.0455 L31.25381,6.0455 L31.25381,3.54835714 C30.65601,3.45692857 29.67461,3.30335714 28.71701,3.30335714 C26.95791,3.30335714 25.17011,3.82407143 25.17011,5.52978571 C25.17011,9.48621429 34.92741,7.35407143 34.92741,14.4197857 C34.92741,18.4683571 31.67171,19.7769286 28.03241,19.7769286 C25.64611,19.7769286 23.31861,19.2290714 21.58891,18.7733571" id="Fill-10"></path>
                    </g>
                    <polygon id="Fill-13" points="132.724932 16.280795 135.325203 16.280795 135.325203 3.71920499 132.033198 3.71920499 132.033198 6.46752947 129 6.46752947 129 1 145 1 145 6.46752947 141.966125 6.46752947 141.966125 3.71920499 138.674119 3.71920499 138.674119 16.280795 141.275068 16.280795 141.275068 19 132.724932 19"></polygon>
                    <polygon id="Fill-14" points="147 16.280795 149.343915 16.280795 149.343915 3.71920499 147 3.71920499 147 1 155 1 155 3.71920499 152.656085 3.71920499 152.656085 16.280795 155 16.280795 155 19 147 19"></polygon>
                    <path d="M157,9.6049218 C157,3.54128678 160.91297,0 166.421044,0 C169.262451,0 171.895801,0.930916908 173,1.4689052 L173,6.72344526 L169.781234,6.72344526 L169.781234,3.36031428 C168.940847,3.12089541 167.694544,2.91034764 166.595784,2.91034764 C162.970423,2.91034764 160.478497,5.22285227 160.478497,9.4239493 C160.478497,13.7475725 163.145164,15.9959973 166.798402,15.9959973 C169.200578,15.9959973 171.404895,15.0383218 172.971443,14.075013 L172.971443,17.4085687 C171.754377,18.0690831 169.460309,19 166.505354,19 C160.709672,19 157,15.4875843 157,9.6049218" id="Fill-15"></path>
                    <polygon id="Fill-17" points="1 44 3 44 3 26 1 26"></polygon>
                    <polygon id="Fill-18" points="8 44 8 26 10.2223247 26 10.2223247 41.9717409 20 41.9717409 20 44"></polygon>
                    <polygon id="Fill-19" points="22 44 22 26 24.2230166 26 24.2230166 41.9717409 34 41.9717409 34 44"></polygon>
                    <path d="M43.4871474,41.9612792 C44.5118799,41.9612792 45.3636237,41.7595234 46.041684,41.3567174 C46.7183549,40.9539113 47.2602473,40.4297696 47.6652772,39.7835868 C48.0696123,39.137404 48.355148,38.3988086 48.5204947,37.5678006 C48.6851466,36.737498 48.7678199,35.8930867 48.7678199,35.0373883 L48.7678199,26 L51,26 L51,35.0373883 C51,36.246512 50.8638322,37.3914407 50.5908017,38.4742906 C50.318466,39.5564352 49.8842573,40.5087788 49.2888704,41.3313215 C48.6941781,42.1538642 47.9209393,42.8042797 46.971238,43.2825678 C46.0201473,43.7608559 44.866889,44 43.5128526,44 C42.1067111,44 40.9249687,43.748158 39.9669307,43.2451795 C39.0081979,42.7407901 38.234959,42.074855 37.6492983,41.2431416 C37.0615534,40.4121336 36.6405447,39.4555573 36.3848826,38.3734128 C36.127831,37.2905628 36,36.1787898 36,35.0373883 L36,26 L38.2314853,26 L38.2314853,35.0373883 C38.2314853,35.9276532 38.3176323,36.7875843 38.4920106,37.6178868 C38.6649993,38.4488948 38.9547033,39.1832576 39.3590385,39.8209751 C39.7647631,40.4586926 40.3017924,40.9750745 40.9715159,41.3687098 C41.6398499,41.7637561 42.4797832,41.9612792 43.4871474,41.9612792" id="Fill-20"></path>
                    <polygon id="Fill-22" points="70.6988657 44 70.6988657 30.0806725 64.665194 40.7547855 63.3613134 40.7547855 57.3018507 30.0806725 57.3018507 44 55 44 55 26 57.4300896 26 63.9996418 37.6871769 70.5964179 26 73 26 73 44"></polygon>
                    <polygon id="Fill-23" points="77 44 79 44 79 26 77 26"></polygon>
                    <polygon id="Fill-24" points="86.2501401 30.2589888 86.2501401 44 84 44 84 26 85.7499533 26 96.7505604 40.0194972 96.7505604 26.0248648 99 26.0248648 99 44 97.1008313 44"></polygon>
                    <path d="M108.086621,26 L109.93658,26 L117,44 L114.661449,44 L112.616326,38.7265264 L105.359108,38.7265264 L103.337868,44 L101,44 L108.086621,26 Z M112.1291,36.9518885 L109.011942,28.6363816 L105.797885,36.9518885 L112.1291,36.9518885 Z" id="Fill-25"></path>
                    <polygon id="Fill-26" points="130 28.028179 124.086289 28.028179 124.086289 44 121.913711 44 121.913711 28.028179 116 28.028179 116 26 130 26"></polygon>
                    <polygon id="Fill-27" points="133 44 135 44 135 26 133 26"></polygon>
                    <path d="M147.487539,43 C146.216545,43 145.060188,42.7457093 144.018471,42.2371278 C142.976754,41.7292469 142.082429,41.0539405 141.337634,40.2126095 C140.592126,39.3712785 140.016084,38.4087566 139.61022,37.3250438 C139.202932,36.2420315 139,35.1338004 139,33.9996497 C139,32.8171629 139.215749,31.6844133 139.647958,30.6 C140.080168,29.5169877 140.677571,28.5593695 141.439455,27.7250438 C142.202052,26.8921191 143.103497,26.2294221 144.145927,25.7376532 C145.187644,25.2465849 146.318366,25 147.538094,25 C148.808377,25 149.959749,25.262697 150.993634,25.7873905 C152.026806,26.3127846 152.916147,27.0007005 153.661654,27.8504378 C154.407162,28.7001751 154.983204,29.662697 155.390492,30.737303 C155.796356,31.8126095 156,32.9089317 156,34.0255692 C156,35.2087566 155.783539,36.3422067 155.35133,37.4252189 C154.919832,38.5089317 154.32599,39.4630473 153.572649,40.2882662 C152.819309,41.1127846 151.921424,41.7712785 150.878995,42.2630473 C149.83799,42.7541156 148.706555,43 147.487539,43 M141.312712,33.9996497 C141.312712,34.8998249 141.460105,35.7712785 141.757026,36.6126095 C142.053236,37.4539405 142.47334,38.2007005 143.015204,38.8500876 C143.556356,39.5001751 144.209298,40.0164623 144.971183,40.4003503 C145.734492,40.7835377 146.58111,40.9754816 147.513173,40.9754816 C148.47799,40.9754816 149.341696,40.7709282 150.104293,40.3625219 C150.86689,39.9548161 151.514848,39.4210158 152.048168,38.7625219 C152.582199,38.1047285 152.988775,37.3593695 153.268607,36.5250438 C153.547728,35.6921191 153.687288,34.8507881 153.687288,33.9996497 C153.687288,33.1008757 153.539183,32.2294221 153.242974,31.3880911 C152.946764,30.5467601 152.522387,29.8042032 151.972691,29.1625219 C151.421571,28.5208406 150.768628,28.0087566 150.015288,27.6248687 C149.261948,27.2416813 148.427435,27.0497373 147.513173,27.0497373 C146.547644,27.0497373 145.682513,27.2500876 144.92134,27.6500876 C144.158031,28.0500876 143.510785,28.5747811 142.976754,29.2255692 C142.443435,29.8756567 142.031874,30.6168126 141.744921,31.4497373 C141.455832,32.284063 141.312712,33.1338004 141.312712,33.9996497" id="Fill-28"></path>
                    <polygon id="Fill-30" points="158 26 158 44 160.250035 44 160.250035 30.2588207 171.100219 44 173 44 173 26.0255742 170.750665 26.0255742 170.750665 40.0189439 159.749872 26"></polygon>
                </g>
            </g>
        </g>
    </g>
</svg>