<?xml version="1.0" encoding="UTF-8"?>
<svg width="43px" height="43px" viewBox="0 0 43 43" version="1.1" xmlns="http://www.w3.org/2000/svg" xmlns:xlink="http://www.w3.org/1999/xlink">
    <!-- Generator: Sketch 49 (51002) - http://www.bohemiancoding.com/sketch -->
    <title>Group 3</title>
    <desc>Created with Sketch.</desc>
    <defs></defs>
    <g id="NEW" stroke="none" stroke-width="1" fill="none" fill-rule="evenodd">
        <g id="FAQ" transform="translate(-1301.000000, -471.000000)">
            <g id="Group-3" transform="translate(1301.000000, 471.000000)">
                <g id="Group-9-Copy-9" fill="#F37E6A">
                    <path d="M11,6.14047381 C7.62102598,8.41504004 5.11516459,11.9383133 3.77173403,16 L1,15.1850601 C2.5966426,10.1045629 5.7402232,5.70724892 10.0223202,3 L11,6.14047381 Z" id="Fill-1"></path>
                    <path d="M41.6881653,14.1241385 C39.6979889,8.75917687 35.6745767,4.46700375 30.3588626,2.03908725 C26.1353826,0.11061621 21.4996892,-0.453553304 17,0.361867854 L18.0943345,3.31267317 C19.0610667,3.16436845 20.0341002,3.0863938 21.0050332,3.0863938 C23.7366686,3.0863938 26.4583268,3.67145848 29.0035472,4.83394327 C33.5504965,6.91071903 36.9915589,10.5816432 38.6939737,15.1704257 C40.3958634,19.7592083 40.1543117,24.7164593 38.0150032,29.128907 C36.3913553,32.4782495 33.8204044,35.2068525 30.6088162,37.0507236 L31.7026256,40 C35.7050332,37.8452496 38.9071694,34.5427939 40.8947203,30.4442833 C43.3963564,25.2852156 43.6783418,19.4891 41.6881653,14.1241385" id="Fill-3"></path>
                    <path d="M21.0441697,39.9170591 C13.6707309,39.916042 6.73911603,35.2875622 4.10223052,27.8670426 C3.26878994,25.5225428 2.94194065,23.1165064 3.06344223,20.7714981 L0.0695830819,20 C-0.166391059,22.9349475 0.191586733,25.9644887 1.23891026,28.9106247 C4.32264041,37.5878165 12.4265949,43 21.04668,43 C22.3575917,43 23.6805531,42.8698065 25,42.6114538 L23.9551868,39.6724378 C22.9826721,39.8351797 22.0101574,39.9170591 21.0441697,39.9170591" id="Fill-6"></path>
                </g>
                <path d="M27.0104035,15.9895965 L14.990004,28.009996" id="Line-4" stroke="#F37E6A" stroke-width="3" stroke-linecap="square"></path>
                <path d="M27.0104121,28.0104121 L15,16" id="Line-4" stroke="#F37E6A" stroke-width="3" stroke-linecap="square"></path>
            </g>
        </g>
    </g>
</svg>