<?xml version="1.0" encoding="UTF-8"?>
<svg width="74px" height="74px" viewBox="0 0 74 74" version="1.1" xmlns="http://www.w3.org/2000/svg" xmlns:xlink="http://www.w3.org/1999/xlink">
    <!-- Generator: Sketch 49 (51002) - http://www.bohemiancoding.com/sketch -->
    <title>Page 1</title>
    <desc>Created with Sketch.</desc>
    <defs></defs>
    <g id="NEW" stroke="none" stroke-width="1" fill="none" fill-rule="evenodd">
        <g id="Litigation" transform="translate(-774.000000, -2208.000000)" fill="#FFFFFF">
            <g id="Page-1" transform="translate(774.000000, 2208.000000)">
                <path d="M27.5004476,48.1251567 C16.1265824,48.1251567 6.87466431,38.8734176 6.87466431,27.5002686 C6.87466431,16.1265824 16.1265824,6.87466431 27.5004476,6.87466431 C38.8734176,6.87466431 48.1253357,16.1265824 48.1253357,27.5002686 C48.1253357,38.8734176 38.8734176,48.1251567 27.5004476,48.1251567 M55,27.5002686 C55,12.3129144 42.6870856,0 27.5004476,0 C12.3129144,0 0,12.3129144 0,27.5002686 C0,42.6869065 12.3129144,55 27.5004476,55 C42.6870856,55 55,42.6869065 55,27.5002686" id="Fill-1"></path>
                <path d="M71.9548916,62.0836536 L54.8710563,45 C52.3260326,48.9587844 48.9587844,52.3262144 45,54.8712381 L62.0836536,71.9548916 C64.8104647,74.6817028 69.2322616,74.6817028 71.9548916,71.9548916 C74.6817028,69.2324434 74.6817028,64.8104647 71.9548916,62.0836536" id="Fill-4"></path>
            </g>
        </g>
    </g>
</svg>