<?xml version="1.0" encoding="UTF-8"?>
<svg width="123px" height="70px" viewBox="0 0 123 70" version="1.1" xmlns="http://www.w3.org/2000/svg" xmlns:xlink="http://www.w3.org/1999/xlink">
    <!-- Generator: Sketch 49 (51002) - http://www.bohemiancoding.com/sketch -->
    <title>money</title>
    <desc>Created with Sketch.</desc>
    <defs></defs>
    <g id="NEW" stroke="none" stroke-width="1" fill="none" fill-rule="evenodd">
        <g id="Mobile-Home-menu" transform="translate(-99.000000, -1544.000000)" fill="#FFFFFF" stroke="#FFFFFF">
            <g id="money" transform="translate(100.000000, 1545.000000)">
                <path d="M3.30382465,64.8503516 L117.696175,64.8503516 L117.696175,3.16545592 L3.30382465,3.16545592 L3.30382465,64.8503516 Z M119.358399,68 L1.64160076,68 C0.742432506,68 0,67.3044691 0,66.4271517 L0,1.57680014 C0,0.711338409 0.742432506,0 1.64160076,0 L119.358399,0 C120.257567,0 121,0.711338409 121,1.57680014 L121,66.4271517 C121,67.3044691 120.257567,68 119.358399,68 Z" id="Fill-1"></path>
                <path d="M119.302338,17 C110.434401,17 103.238532,10.1029271 103.238532,1.62739923 C103.238532,0.734165067 103.989257,0 104.936194,0 C105.887397,0 106.638121,0.734165067 106.638121,1.62739923 C106.638121,8.30014395 112.319744,13.7329655 119.302338,13.7329655 C120.232213,13.7329655 121,14.4671305 121,15.3603647 C121,16.2658349 120.232213,17 119.302338,17" id="Fill-3"></path>
                <path d="M104.95161,68 C104.005582,68 103.238532,67.2814601 103.238532,66.3751201 C103.238532,57.8914505 110.44454,51 119.303967,51 C120.23295,51 121,51.7348703 121,52.6289625 C121,53.5353026 120.23295,54.2701729 119.303967,54.2701729 C112.328074,54.2701729 106.651904,59.6918828 106.651904,66.3751201 C106.651904,67.2814601 105.9019,68 104.95161,68" id="Fill-4"></path>
                <path d="M1.69603268,17 C0.767049957,17 0,16.2658349 0,15.3603647 C0,14.4671305 0.767049957,13.7329655 1.69603268,13.7329655 C8.6719259,13.7329655 14.3480956,8.30014395 14.3480956,1.62739923 C14.3480956,0.734165067 15.1151455,0 16.0483897,0 C16.9944179,0 17.7614679,0.734165067 17.7614679,1.62739923 C17.7614679,10.1029271 10.5554597,17 1.69603268,17" id="Fill-5"></path>
                <path d="M16.0483897,68 C15.1151455,68 14.3480956,67.2814601 14.3480956,66.3751201 C14.3480956,59.6918828 8.6719259,54.2701729 1.69603268,54.2701729 C0.767049957,54.2701729 0,53.5353026 0,52.6289625 C0,51.7348703 0.767049957,51 1.69603268,51 C10.5554597,51 17.7614679,57.8914505 17.7614679,66.3751201 C17.7614679,67.2814601 16.9944179,68 16.0483897,68" id="Fill-6"></path>
                <path d="M60.6250771,51 C56.2127798,51 50.6832921,48.2815897 48.3359822,46.4494448 C47.6422755,45.9089421 47.5333797,44.899474 48.0859252,44.2158971 C48.6344374,43.5323203 49.6427321,43.4091175 50.3525715,43.9655172 C52.3691607,45.5353594 57.1726763,47.8165985 60.6250771,47.8165985 C63.9806816,47.8165985 68.9414912,46.0480421 68.9414912,42.2605494 C68.9414912,38.8744594 65.5576544,37.5390999 61.1453572,36.1441262 L59.8386073,35.7228521 C56.3539411,34.5583869 49.0942198,32.1539451 49.0942198,26.3634132 C49.0942198,20.763647 53.5024839,17 60.0886644,17 C66.7071103,17 70.8653174,20.3542957 71.038744,20.4933957 C71.7324507,21.0537697 71.8252138,22.0632379 71.2444361,22.7309176 C70.675758,23.4184687 69.6674633,23.505903 68.9737566,22.9455289 C68.913259,22.8859147 65.4769909,20.1834015 60.0886644,20.1834015 C55.2851488,20.1834015 52.3046299,22.5441262 52.3046299,26.3634132 C52.3046299,29.4514319 56.6402968,31.299474 60.8630347,32.7103448 L62.1213864,33.1157218 C66.1222994,34.3715956 72.1559345,36.2832262 72.1559345,42.2605494 C72.1720672,48.2815897 65.41246,51 60.6250771,51" id="Fill-7"></path>
                <path d="M60.5062365,55.25 C59.5790812,55.25 58.8348624,54.5373113 58.8348624,53.6583287 L58.8348624,14.3258338 C58.8348624,13.4587293 59.5790812,12.75 60.5062365,12.75 C61.4167612,12.75 62.1651376,13.4587293 62.1651376,14.3258338 L62.1651376,53.6583287 C62.1651376,54.5373113 61.4167612,55.25 60.5062365,55.25" id="Fill-8"></path>
            </g>
        </g>
    </g>
</svg>