<?xml version="1.0" encoding="UTF-8"?>
<svg width="56px" height="34px" viewBox="0 0 56 34" version="1.1" xmlns="http://www.w3.org/2000/svg" xmlns:xlink="http://www.w3.org/1999/xlink">
    <!-- Generator: Sketch 49 (51002) - http://www.bohemiancoding.com/sketch -->
    <title>money</title>
    <desc>Created with Sketch.</desc>
    <defs></defs>
    <g id="NEW" stroke="none" stroke-width="1" fill="none" fill-rule="evenodd">
        <g id="Mobile-Home-menu" transform="translate(-127.000000, -3817.000000)" fill="#F68938" stroke="#F68938">
            <g id="money" transform="translate(128.000000, 3818.000000)">
                <path d="M1.47443414,30.5178125 L52.5255659,30.5178125 L52.5255659,1.48962631 L1.47443414,1.48962631 L1.47443414,30.5178125 Z M53.2673848,32 L0.732615217,32 C0.331333515,32 0,31.6726913 0,31.2598361 L0,0.742023595 C0,0.334747486 0.331333515,0 0.732615217,0 L53.2673848,0 C53.6686665,0 54,0.334747486 54,0.742023595 L54,31.2598361 C54,31.6726913 53.6686665,32 53.2673848,32 Z" id="Fill-1"></path>
                <path d="M53.2353506,8 C49.2411143,8 46,4.75431862 46,0.765834933 C46,0.345489443 46.3381364,0 46.7646494,0 C47.1930836,0 47.53122,0.345489443 47.53122,0.765834933 C47.53122,3.9059501 50.0902978,6.46257198 53.2353506,6.46257198 C53.6541787,6.46257198 54,6.80806142 54,7.22840691 C54,7.65451056 53.6541787,8 53.2353506,8" id="Fill-3"></path>
                <path d="M46.7715931,32 C46.3454894,32 46,31.6618636 46,31.2353506 C46,27.2430355 49.2456814,24 53.2360845,24 C53.6545106,24 54,24.3458213 54,24.7665706 C54,25.1930836 53.6545106,25.5389049 53.2360845,25.5389049 C50.0940499,25.5389049 47.537428,28.0902978 47.537428,31.2353506 C47.537428,31.6618636 47.1996161,32 46.7715931,32" id="Fill-4"></path>
                <path d="M0.763915547,8 C0.345489443,8 0,7.65451056 0,7.22840691 C0,6.80806142 0.345489443,6.46257198 0.763915547,6.46257198 C3.9059501,6.46257198 6.46257198,3.9059501 6.46257198,0.765834933 C6.46257198,0.345489443 6.80806142,0 7.22840691,0 C7.65451056,0 8,0.345489443 8,0.765834933 C8,4.75431862 4.75431862,8 0.763915547,8" id="Fill-5"></path>
                <path d="M7.22840691,32 C6.80806142,32 6.46257198,31.6618636 6.46257198,31.2353506 C6.46257198,28.0902978 3.9059501,25.5389049 0.763915547,25.5389049 C0.345489443,25.5389049 0,25.1930836 0,24.7665706 C0,24.3458213 0.345489443,24 0.763915547,24 C4.75431862,24 8,27.2430355 8,31.2353506 C8,31.6618636 7.65451056,32 7.22840691,32" id="Fill-6"></path>
                <path d="M26.8063364,24 C24.8189794,24 22.328425,22.7207481 21.2711655,21.8585622 C20.9587109,21.6042081 20.9096628,21.1291642 21.1585365,20.807481 C21.4055937,20.4857978 21.859743,20.42782 22.179464,20.6896552 C23.0877625,21.4284044 25.2513294,22.5019287 26.8063364,22.5019287 C28.317745,22.5019287 30.5521593,21.6696669 30.5521593,19.8873174 C30.5521593,18.2938632 29.0280344,17.6654588 27.0406774,17.0090006 L26.4521,16.8107539 C24.8825602,16.2627703 21.6126858,15.1312683 21.6126858,12.4063121 C21.6126858,9.771128 23.5982262,8 26.564729,8 C29.5457646,8 31.418676,9.57849211 31.4967897,9.64395091 C31.8092443,9.90765634 31.8510261,10.3827002 31.5894361,10.6969024 C31.3332959,11.0204559 30.8791467,11.0616014 30.566692,10.797896 C30.5394431,10.7698422 28.9917025,9.4980713 26.564729,9.4980713 C24.4011621,9.4980713 23.0586969,10.6090006 23.0586969,12.4063121 C23.0586969,13.8594974 25.0115386,14.7291642 26.9135156,15.3931034 L27.4802939,15.5838691 C29.282358,16.1748685 31.999987,17.0744594 31.999987,19.8873174 C32.0072534,22.7207481 28.962637,24 26.8063364,24" id="Fill-7"></path>
                <path d="M27.0037453,26 C26.4469413,26 26,25.6646171 26,25.2509782 L26,6.74156885 C26,6.33351966 26.4469413,6 27.0037453,6 C27.5505618,6 28,6.33351966 28,6.74156885 L28,25.2509782 C28,25.6646171 27.5505618,26 27.0037453,26" id="Fill-8"></path>
            </g>
        </g>
    </g>
</svg>