<?xml version="1.0" encoding="UTF-8"?>
<svg width="86px" height="85px" viewBox="0 0 86 85" version="1.1" xmlns="http://www.w3.org/2000/svg" xmlns:xlink="http://www.w3.org/1999/xlink">
    <!-- Generator: Sketch 49 (51002) - http://www.bohemiancoding.com/sketch -->
    <title>Group</title>
    <desc>Created with Sketch.</desc>
    <defs></defs>
    <g id="NEW" stroke="none" stroke-width="1" fill="none" fill-rule="evenodd">
        <g id="Booking-V2-Copy-10" transform="translate(-736.000000, -1301.000000)">
            <g id="Group-2-Copy" transform="translate(600.000000, 1301.000000)">
                <g id="Group" transform="translate(136.000000, 0.000000)">
                    <path d="M79.7606636,42.7475198 C79.8901965,50.7619401 77.2738382,58.7763604 72,65.3456066 L76.204678,69.9449784 C83.0102938,61.9195643 86.3092697,51.9042873 85.9772133,41.9449784 L79.7606636,42.7475198 Z" id="Fill-1" fill="#F58939"></path>
                    <path d="M10.8643506,70.7292739 C18.4982014,79.1828169 29.0190097,84.2040032 40.4898129,84.8700583 C49.6015477,85.3986574 58.4411217,83.1185052 66,78.3974986 L61.8015361,73.748252 C60.1572747,74.7124653 58.4503649,75.5523618 56.686969,76.2477274 C51.7264552,78.2034431 46.3479435,79.0736607 40.8554325,78.7542777 C31.0442961,78.1852504 22.0455337,73.8907615 15.516758,66.6611832 C8.98900935,59.4305941 5.71178373,50.1310903 6.28999684,40.4758181 C6.72956204,33.149212 9.35257496,26.2844984 13.8006051,20.5922035 L9.60419523,15.9449784 C3.95352292,22.7773494 0.61364899,31.1480145 0.0765167442,40.1160068 C-0.600290426,51.4045796 3.23049978,62.2767415 10.8643506,70.7292739" id="Fill-4" fill="#F58939"></path>
                    <path d="M25.1695143,12.4465317 C26.8843292,11.4033628 28.6614825,10.511853 30.4866669,9.77917537 C44.4187718,4.18623225 60.974196,7.58319202 71.5022195,19.4617916 C74.8286335,23.2153553 77.2424552,27.4669349 78.7661674,31.9449784 L85,31.1159767 C83.252483,25.447204 80.3123623,20.0530573 76.1326286,15.3362532 C63.8223422,1.44714523 44.4668029,-2.52570939 28.1781049,4.01510336 C25.7019449,5.011135 23.2993645,6.258224 21,7.74099951 L25.1695143,12.4465317 Z" id="Fill-7" fill="#F58939"></path>
                    <polygon id="Triangle" fill="#F68938" points="60 43.9449784 34 61.9449784 34 25.9449784"></polygon>
                </g>
            </g>
        </g>
    </g>
</svg>