<?xml version="1.0" encoding="UTF-8"?>
<svg width="42px" height="52px" viewBox="0 0 42 52" version="1.1" xmlns="http://www.w3.org/2000/svg" xmlns:xlink="http://www.w3.org/1999/xlink">
    <!-- Generator: Sketch 49 (51002) - http://www.bohemiancoding.com/sketch -->
    <title>Page 1</title>
    <desc>Created with Sketch.</desc>
    <defs></defs>
    <g id="NEW" stroke="none" stroke-width="1" fill="none" fill-rule="evenodd">
        <g id="Mobile-Home-menu" transform="translate(-135.000000, -4011.000000)" fill="#F68938" stroke="#F68938">
            <g id="Page-1" transform="translate(136.000000, 4012.000000)">
                <path d="M36.2776847,48.5055572 L3.72231528,48.5055572 C2.49395124,48.5055572 1.49078727,47.4917393 1.49078727,46.2451187 L1.49078727,3.75488135 C1.49078727,2.51389306 2.49395124,1.50195254 3.72231528,1.50195254 L26.6164154,1.50195254 L26.6164154,13.0744968 C26.6164154,13.4875338 26.9495626,13.8235957 27.3646008,13.8235957 L38.5092127,13.8235957 L38.5092127,46.2451187 C38.5092127,47.4917393 37.5060488,48.5055572 36.2776847,48.5055572 Z M28.1072027,2.60213277 L37.4892983,12.3216431 L28.1072027,12.3216431 L28.1072027,2.60213277 Z M40,13.0688645 C40,13.0012767 39.9776661,12.9374437 39.9609157,12.8736107 C39.9534711,12.8473265 39.9553322,12.8210424 39.9441653,12.7947582 C39.9218314,12.7346801 39.8827471,12.6858666 39.8436628,12.6351757 C39.82319,12.6070141 39.8138842,12.5732202 39.7896892,12.5488135 L27.8950307,0.227170321 C27.8950307,0.227170321 27.8931696,0.227170321 27.8931696,0.225292881 C27.757305,0.0882397116 27.5711893,0 27.3646008,0 L3.72231528,0 C1.67131956,0 0,1.68781916 0,3.75488135 L0,46.2451187 C0,48.321568 1.67131956,50 3.72231528,50 L36.2776847,50 C38.3286804,50 40,48.321568 40,46.2526284 L40,13.0744968 L40,13.0726194 C40,13.070742 40,13.070742 40,13.0688645 Z" id="Fill-1"></path>
                <path d="M26.0003925,23.4228818 L23.3344163,21.4911303 L24.5197154,19.8304348 L27.1856916,21.7621863 L26.0003925,23.4228818 Z M14.7343709,38.9417947 L12.3145431,37.2085631 L22.5827171,22.8273221 L24.9911842,24.5758244 L14.7343709,38.9417947 Z M11.631008,40.9327205 L11.8241398,38.7299129 L13.5396046,39.9592093 L11.631008,40.9327205 Z M24.7885852,18.1430155 C24.4477644,17.8967745 23.9762955,17.976946 23.7320406,18.3186293 L21.6625009,21.2219831 L21.6606074,21.2277096 C21.6530336,21.235345 21.6435664,21.2391627 21.6359926,21.2487069 L10.5612093,36.7599845 C10.424881,36.9527778 10.3813317,37.1818393 10.4192006,37.3994477 L10.0026419,42.1677434 C9.97992048,42.444526 10.1048881,42.7117643 10.3339954,42.8682897 C10.4608565,42.9541877 10.6085455,43 10.758128,43 C10.8736284,43 10.9910222,42.9713673 11.0989488,42.9160108 L15.3421681,40.7494713 C15.4216929,40.7112944 15.4747095,40.642576 15.5352999,40.5776752 C15.6394396,40.5204099 15.734112,40.444056 15.8079565,40.3409784 L26.8827398,24.8297009 C26.8997808,24.8067947 26.9035677,24.778162 26.9168219,24.7533471 L28.8576071,22.0313335 C28.9750009,21.8690817 29.0223372,21.6629264 28.9901485,21.4644065 C28.9579599,21.2639777 28.8462464,21.0845462 28.6834098,20.9661978 L24.7885852,18.1430155 Z" id="Fill-4"></path>
            </g>
        </g>
    </g>
</svg>