<?xml version="1.0" encoding="UTF-8"?>
<svg width="118px" height="121px" viewBox="0 0 118 121" version="1.1" xmlns="http://www.w3.org/2000/svg" xmlns:xlink="http://www.w3.org/1999/xlink">
    <!-- Generator: Sketch 49 (51002) - http://www.bohemiancoding.com/sketch -->
    <title>24</title>
    <desc>Created with Sketch.</desc>
    <defs></defs>
    <g id="NEW" stroke="none" stroke-width="1" fill="none" fill-rule="evenodd">
        <g id="Home-Copy" transform="translate(-785.000000, -1086.000000)" fill="#FFFFFF" stroke="#FFFFFF">
            <g id="24" transform="translate(786.000000, 1087.000000)">
                <path d="M18.9499259,18.0350107 C14.7674815,18.0350107 10.9958519,22.0325107 7.64814815,25.5687607 C6.98385185,26.2716179 6.33266667,26.9569036 5.68585185,27.589475 C2.49111111,30.818225 2.81888889,39.2788679 6.52059259,49.1627964 C11.0963704,61.3617607 20.1954815,74.6940821 32.1440741,86.690975 C44.0795556,98.7010464 57.3436296,107.846975 69.4801481,112.446296 C79.330963,116.184618 87.7308148,116.496511 90.943037,113.285332 C91.5723704,112.635189 92.2716296,111.980654 92.9708889,111.312939 C96.558963,107.882118 100.619037,103.985654 100.448593,99.6806536 C100.330593,96.7110821 98.1803704,93.5350464 94.0634815,90.2052607 C81.7565185,80.2730107 78.3257778,83.7741179 72.6224444,89.5902607 L71.4948889,90.7236179 C68.7808889,93.4691536 64.344963,92.8673321 58.3357037,88.935725 C54.1707407,86.2077607 49.0137037,81.7797607 43.0219259,75.7571536 C28.236963,60.8829393 23.4907407,51.7853321 28.1364444,47.1201179 L29.2421481,46.0219036 C35.0328889,40.289225 38.5291852,36.8232607 28.6477778,24.452975 C25.335037,20.3149036 22.1752593,18.1536179 19.2208889,18.0350107 L18.9499259,18.0350107 Z M83.5483704,119.000439 C79.212963,119.000439 73.9903704,117.902225 68.2520741,115.740939 C55.6522963,110.952725 41.9642963,101.530046 29.6704444,89.1773321 C17.380963,76.820225 8.00651852,63.0617964 3.24281481,50.3971893 C-1.07511111,38.8835107 -1.07511111,29.4256893 3.20785185,25.1206893 C3.84155556,24.483725 4.47088889,23.8160107 5.12207407,23.130725 C9.04666667,18.9926536 13.5568889,14.274725 19.3607407,14.5339036 C23.4208148,14.705225 27.3497778,17.226725 31.3617778,22.2565464 C43.2448148,37.1131893 37.8823704,42.4021893 31.7026667,48.5434036 L30.5925926,49.6240464 C29.5874074,50.6387964 27.6731852,55.356725 45.4955556,73.2883679 C51.3168889,79.1220821 56.2685185,83.4095107 60.2455556,86.0012964 C62.7366667,87.6310464 67.1944444,90.104225 69.0212593,88.2504393 L70.1313333,87.1346536 C76.2236296,80.9231536 81.4986667,75.5506893 96.2661481,87.4772964 C101.270222,91.5275107 103.778815,95.4766893 103.949259,99.5400821 C104.18963,105.461654 99.5133333,109.924796 95.378963,113.869582 C94.6971852,114.524118 94.0328889,115.156689 93.4166667,115.776082 C91.2664444,117.919796 87.8531852,119.000439 83.5483704,119.000439 Z" id="Fill-1"></path>
                <path d="M94.6578672,90 C94.131599,90 93.5879335,89.7470072 93.2486863,89.2846411 C92.6876235,88.4994911 92.8572471,87.409005 93.6401254,86.8506761 C97.2413657,84.2073378 100.438119,81.0536519 103.156446,77.4768575 C109.288993,69.4159841 112.516191,59.7760869 112.516191,49.5996704 C112.516191,24.1782581 91.9090945,3.49391751 66.556885,3.49391751 C58.8803282,3.49391751 51.2690113,5.43498279 44.5754017,9.09901614 C43.7229342,9.56138225 42.6703978,9.2516842 42.2137187,8.40110503 C41.7526904,7.55052586 42.0614924,6.4949353 42.9096106,6.03256919 C50.1120911,2.08064751 58.3018681,0 66.556885,0 C93.8271464,0 116,22.2546406 116,49.5996704 C116,60.5394271 112.516191,70.916493 105.922616,79.5880386 C102.999871,83.4396355 99.568254,86.8332283 95.6973557,89.6772161 C95.3885537,89.8996753 95.0145118,90 94.6578672,90" id="Fill-4"></path>
                <path d="M56.7823344,31.0114654 C58.8614414,30.3957908 60.8619267,30 63.0283912,30 C68.5886921,30 72,32.8013193 72,37.5771949 C72,40.2201979 70.5498665,42.2475263 67.4443096,44.2924454 L61.2200922,48.5186116 C59.2894928,49.8247212 58.4202863,51.8828334 58.4202863,54.0992618 L71.183208,54.0992618 C71.454016,54.0992618 71.6068915,54.2575781 71.6068915,54.530234 L71.6068915,57.5690278 C71.6068915,57.8460814 71.454016,58 71.183208,58 L54.4280514,58 C54.1528755,58 54,57.8460814 54,57.5690278 L54,55.682425 C54,50.8537773 55.5724339,47.3840113 59.0842029,45.0488456 L65.2953167,40.8886446 C66.8677505,39.8244071 67.56661,38.795351 67.56661,37.5771949 C67.56661,35.3607665 65.8413007,33.9491126 63.0109197,33.9491126 C61.2506673,33.9491126 59.5646688,34.2613476 58.0795923,34.7758756 L55.7908275,35.5322758 C55.5724339,35.5982409 55.3671439,35.4795037 55.2797865,35.2376315 L54.3101189,32.2823936 C54.1878185,32.0449191 54.3101189,31.8558191 54.580927,31.7678656 L56.7823344,31.0114654 Z" id="Fill-6"></path>
                <path d="M89.6902915,40.5749562 C89.6902915,39.3318464 89.7607465,38.1059423 89.9148668,36.7768042 C89.9985322,36.3251553 89.6374502,36.209017 89.3292095,36.6262546 L82.913399,44.5924805 C82.3981967,45.2807073 81.658419,46.1711008 81.1079891,46.6743667 C80.8129587,46.9926717 80.9846928,47.2464553 81.297337,47.2464553 L89.6902915,47.2464553 L89.6902915,40.5749562 Z M97,50.6574797 C97,50.928469 96.8458796,51.0962243 96.5728664,51.0962243 L94.1113441,51.0962243 L94.1113441,57.578461 C94.1113441,57.8494504 93.9572237,58 93.6798071,58 L90.1218285,58 C89.8444118,58 89.6902915,57.8494504 89.6902915,57.578461 L89.6902915,51.0962243 L76.4271336,51.0962243 C76.1541204,51.0962243 76,50.928469 76,50.6574797 L76,47.4142106 C76,47.1776326 76.0308241,47.027083 76.1893479,46.8765334 C77.1845251,45.7495619 78.0431956,44.7086188 79.0075488,43.4310977 L86.3172573,34.2432691 C87.0746488,33.2668472 87.6603061,32.3420424 88.3296289,31.2666879 C88.5057664,31.0645213 88.6598868,31 88.8976725,31 L93.6798071,31 C93.9572237,31 94.1113441,31.1505496 94.1113441,31.4172375 L94.1113441,47.263661 L96.5728664,47.263661 C96.8458796,47.263661 97,47.4142106 97,47.6851999 L97,50.6574797 Z" id="Fill-8"></path>
            </g>
        </g>
    </g>
</svg>