<?xml version="1.0" encoding="UTF-8"?>
<svg width="47px" height="47px" viewBox="0 0 47 47" version="1.1" xmlns="http://www.w3.org/2000/svg" xmlns:xlink="http://www.w3.org/1999/xlink">
    <!-- Generator: Sketch 49 (51002) - http://www.bohemiancoding.com/sketch -->
    <title>Page 1</title>
    <desc>Created with Sketch.</desc>
    <defs></defs>
    <g id="NEW" stroke="none" stroke-width="1" fill="none" fill-rule="evenodd">
        <g id="Mobile-Home-menu" transform="translate(-134.000000, -4505.000000)" fill="#F68938" stroke="#F68938">
            <g id="Page-1" transform="translate(135.000000, 4506.000000)">
                <path d="M8.20279239,1.51168154 C6.39235263,1.51168154 4.75974081,3.23532123 3.31063229,4.75651366 C3.02308073,5.05923852 2.74120453,5.35628729 2.46122011,5.62873967 C1.07832412,7.019382 1.22020811,10.6615405 2.82255135,14.9186089 C4.8032519,20.1746693 8.74195157,25.9169815 13.9140961,31.0897926 C19.0805653,36.2569276 24.8221375,40.1961348 30.083196,42.1770907 C34.3321487,43.7872085 37.9757297,43.9196506 39.3661928,42.5384685 C39.6386101,42.258448 39.9337288,41.9765354 40.2439818,41.6889468 C41.7971385,40.2112711 43.5546083,38.5406083 43.4808286,36.6769583 C43.4297504,35.4055139 42.4989914,34.0318998 40.7169284,32.5977408 C35.3972245,28.3179681 33.9046049,29.8259163 31.4358234,32.3309645 L30.9477425,32.8191084 C29.772943,34.0016274 27.8527796,33.7443112 25.2515731,32.050944 C23.4487005,30.8759932 21.2163923,28.9688265 18.6227529,26.3748529 C12.2152717,19.9665459 10.1683587,16.050043 12.1793278,14.0388147 L12.6579498,13.5658071 C15.164567,11.0985995 16.6779963,9.60578754 12.4006668,4.27593794 C10.9666926,2.49553735 9.59136375,1.57222652 8.32008316,1.51168154 L8.20279239,1.51168154 Z M36.1652899,45 C34.2886376,45 32.0279526,44.5345605 29.5440368,43.5961135 C24.0900161,41.5338003 18.1649405,37.4753951 12.8433449,32.1550057 C7.52364101,26.8327242 3.45819164,20.8974249 1.40371141,15.4521614 C-0.465373732,10.4912578 -0.465373732,6.42717649 1.38857712,4.56541859 C1.66288617,4.29107418 1.93530344,4.00348556 2.21717964,3.70832882 C3.916004,1.91846808 5.85319346,-0.121140681 8.38062033,0.00562535543 C10.1380901,0.0794145405 11.8388062,1.16543998 13.5754663,3.32992275 C18.719234,9.72309343 16.405579,12.0067741 13.7230256,14.6461565 L13.250079,15.1191641 C12.8074009,15.5543311 11.9712313,17.5939398 19.6935041,25.3039637 C22.2133638,27.8241481 24.3643252,29.6707698 26.0782838,30.7870677 C27.1566022,31.489011 29.0862245,32.546656 29.8769913,31.7557873 L30.3575051,31.2752116 C32.9946556,28.5998806 35.278042,26.2859274 41.6703888,31.4227899 C43.8364845,33.167242 44.92237,34.8662852 44.9961497,36.6183054 C45.1001979,39.1687623 43.0759863,41.0891732 41.2863562,42.7901085 C40.9912375,43.070129 40.7036859,43.3444734 40.436944,43.6093577 C39.506185,44.5345605 38.0286997,45 36.1652899,45 Z" id="Fill-1"></path>
                <path d="M28.7472785,17 C28.5562449,17 28.3670842,16.9269577 28.2191268,16.7790004 C27.9269577,16.4868313 27.9269577,16.0111202 28.2191268,15.7264427 L42.7208241,1.21912677 C43.0129931,0.926957743 43.4887042,0.926957743 43.7808732,1.21912677 C44.0730423,1.5112958 44.0730423,1.98700691 43.7808732,2.27917593 L29.2735573,16.7790004 C29.1349643,16.9269577 28.9364392,17 28.7472785,17" id="Fill-4"></path>
                <path d="M43.2896029,13 C42.8915663,13 42.5702811,12.6804522 42.5702811,12.2823564 L42.5702811,2.42814639 L32.7193217,2.42814639 C32.3212851,2.42814639 32,2.10859863 32,1.71764356 C32,1.31954775 32.3212851,1 32.7193217,1 L43.2824632,1 C43.6787149,1 44,1.31954775 44,1.71764356 L44,12.2823564 C44,12.6804522 43.6787149,13 43.2896029,13" id="Fill-7"></path>
            </g>
        </g>
    </g>
</svg>