<?xml version="1.0" encoding="UTF-8"?>
<svg width="101px" height="132px" viewBox="0 0 101 132" version="1.1" xmlns="http://www.w3.org/2000/svg" xmlns:xlink="http://www.w3.org/1999/xlink">
    <!-- Generator: Sketch 49 (51002) - http://www.bohemiancoding.com/sketch -->
    <title>results copy</title>
    <desc>Created with Sketch.</desc>
    <defs></defs>
    <g id="NEW" stroke="none" stroke-width="1" fill="none" fill-rule="evenodd">
        <g id="Mobile-Home-menu" transform="translate(-110.000000, -1083.000000)" fill="#FFFFFF" stroke="#FFFFFF">
            <g id="results" transform="translate(111.000000, 1084.000000)">
                <path d="M89.7084205,130 L9.20546591,130 C4.13376136,130 0.000920454545,126.033627 0.000920454545,121.166208 L0.000920454545,21.2030119 C0.000920454545,16.3355923 4.13376136,12.3692195 9.20546591,12.3692195 L22.7591591,12.3692195 C23.7854659,12.3692195 24.5954659,13.1598439 24.5954659,14.1271442 C24.5954659,15.112112 23.7854659,15.9027365 22.7591591,15.9027365 L9.20546591,15.9027365 C6.16796591,15.9027365 3.68734091,18.2701928 3.68734091,21.2030119 L3.68734091,121.166208 C3.68734091,124.099027 6.16796591,126.466483 9.20546591,126.466483 L89.7084205,126.466483 C92.7459205,126.466483 95.2265455,124.099027 95.2265455,121.166208 L95.2265455,21.2030119 C95.2265455,18.2701928 92.7459205,15.9027365 89.7084205,15.9027365 L76.1363182,15.9027365 C75.1284205,15.9027365 74.3000114,15.112112 74.3000114,14.1271442 C74.3000114,13.1598439 75.1284205,12.3692195 76.1363182,12.3692195 L89.7084205,12.3692195 C94.780125,12.3692195 98.9129659,16.3355923 98.9129659,21.2030119 L98.9129659,121.166208 C98.9129659,126.051295 94.780125,130 89.7084205,130" id="Fill-1"></path>
                <path d="M25.0630293,26.4963672 L75.0434612,26.4963672 L75.0434612,11.4214655 L58.1581176,11.4214655 C57.1308372,11.4214655 56.2979071,10.6155604 56.2979071,9.63951985 C56.3164166,6.29949114 53.5122187,3.58627747 50.0601863,3.58627747 C46.6081539,3.58627747 43.8085834,6.29949114 43.8085834,9.63951985 C43.8085834,10.6155604 42.9756533,11.4214655 41.962255,11.4214655 L25.0630293,11.4214655 L25.0630293,26.4963672 Z M76.9036717,30.0826446 L23.2213283,30.0826446 C22.2079301,30.0826446 21.375,29.2767396 21.375,28.28279 L21.375,9.63951985 C21.375,8.64109304 22.2079301,7.83518799 23.2213283,7.83518799 L40.2825127,7.83518799 C41.1524619,3.37584671 45.2014275,0 50.0601863,0 C54.9050629,0 58.9725381,3.37584671 59.8424873,7.83518799 L76.9036717,7.83518799 C77.9170699,7.83518799 78.75,8.64109304 78.75,9.63951985 L78.75,28.28279 C78.75,29.2767396 77.9170699,30.0826446 76.9036717,30.0826446 Z" id="Fill-4"></path>
                <path d="M43.5690663,95.6198347 C42.8457706,95.6198347 42.1734765,95.2105264 41.8860128,94.5878552 L33.0998243,76.0078705 L17.6138774,76.0078705 C16.584572,76.0078705 15.75,75.228443 15.75,74.2791961 C15.75,73.3038231 16.584572,72.5200412 17.6138774,72.5200412 L34.2960442,72.5200412 C35.037886,72.5200412 35.691634,72.9293495 35.9976437,73.5650837 L43.3882423,89.162343 L56.6625735,53.8137805 C56.9175816,53.1475659 57.5713296,52.6947142 58.3317175,52.6555251 C59.0921053,52.5684382 59.7783089,53.0125813 60.1028647,53.6570242 L69.487163,72.5374586 L82.5250321,72.5374586 C83.5589741,72.5374586 84.375,73.3038231 84.375,74.2791961 C84.375,75.228443 83.5589741,76.0078705 82.5250321,76.0078705 L68.3094892,76.0078705 C67.5861935,76.0078705 66.9324454,75.6159796 66.6264357,75.0107258 L58.6562732,58.9823865 L45.326304,94.4615793 C45.0712959,95.1321482 44.4221843,95.585 43.6617965,95.6198347 L43.5690663,95.6198347 Z" id="Fill-6"></path>
            </g>
        </g>
    </g>
</svg>