<?xml version="1.0" encoding="UTF-8"?>
<svg width="40px" height="54px" viewBox="0 0 40 54" version="1.1" xmlns="http://www.w3.org/2000/svg" xmlns:xlink="http://www.w3.org/1999/xlink">
    <!-- Generator: Sketch 49 (51002) - http://www.bohemiancoding.com/sketch -->
    <title>Page 1</title>
    <desc>Created with Sketch.</desc>
    <defs></defs>
    <g id="NEW" stroke="none" stroke-width="1" fill="none" fill-rule="evenodd">
        <g id="Mobile-Home-menu" transform="translate(-135.000000, -5007.000000)" fill="#F68938" stroke="#F68938">
            <g id="Page-1" transform="translate(136.000000, 5008.000000)">
                <path d="M34.4638005,52 L3.53619952,52 C1.58775358,52 0,50.4152148 0,48.4704115 L0,8.52958847 C0,6.58478522 1.58775358,5 3.53619952,5 L8.7432533,5 C9.13753955,5 9.44872511,5.31589817 9.44872511,5.7023881 C9.44872511,6.09593722 9.13753955,6.41183539 8.7432533,6.41183539 L3.53619952,6.41183539 C2.36925368,6.41183539 1.41624791,7.35776509 1.41624791,8.52958847 L1.41624791,48.4704115 C1.41624791,49.6422349 2.36925368,50.5881646 3.53619952,50.5881646 L34.4638005,50.5881646 C35.6307463,50.5881646 36.5837521,49.6422349 36.5837521,48.4704115 L36.5837521,8.52958847 C36.5837521,7.35776509 35.6307463,6.41183539 34.4638005,6.41183539 L29.2496743,6.41183539 C28.8624605,6.41183539 28.5442025,6.09593722 28.5442025,5.7023881 C28.5442025,5.31589817 28.8624605,5 29.2496743,5 L34.4638005,5 C36.4122464,5 38,6.58478522 38,8.52958847 L38,48.4704115 C38,50.422274 36.4122464,52 34.4638005,52" id="Fill-1"></path>
                <path d="M9.4141463,10.56943 L28.5787564,10.56943 L28.5787564,4.55603512 L22.104202,4.55603512 C21.7102992,4.55603512 21.3909186,4.23455871 21.3909186,3.84521506 C21.398016,2.51287394 20.322768,1.43057003 18.9991128,1.43057003 C17.6754577,1.43057003 16.601984,2.51287394 16.601984,3.84521506 C16.601984,4.23455871 16.2826034,4.55603512 15.8940237,4.55603512 L9.4141463,4.55603512 L9.4141463,10.56943 Z M29.2920397,12 L8.70796032,12 C8.3193806,12 8,11.6785236 8,11.282036 L8,3.84521506 C8,3.44694151 8.3193806,3.1254651 8.70796032,3.1254651 L15.2499395,3.1254651 C15.5835148,1.34662896 17.1360594,0 18.9991128,0 C20.8568433,0 22.4164852,1.34662896 22.7500605,3.1254651 L29.2920397,3.1254651 C29.6806194,3.1254651 30,3.44694151 30,3.84521506 L30,11.282036 C30,11.6785236 29.6806194,12 29.2920397,12 Z" id="Fill-4"></path>
                <path d="M16.5398284,39 C16.2657929,39 16.0110803,38.8285628 15.9021688,38.5677594 L12.5733396,30.7856042 L6.7061685,30.7856042 C6.31619485,30.7856042 6,30.459144 6,30.0615556 C6,29.6530244 6.31619485,29.3247403 6.7061685,29.3247403 L13.0265523,29.3247403 C13.3076144,29.3247403 13.5553003,29.4961776 13.6712384,29.7624524 L16.4713195,36.2953044 L21.5005743,21.489695 C21.5971894,21.2106536 21.8448753,21.0209784 22.132964,21.0045642 C22.4210526,20.9680882 22.6810351,21.1541158 22.8039997,21.4240382 L26.3594352,29.3320355 L31.2991014,29.3320355 C31.6908317,29.3320355 32,29.6530244 32,30.0615556 C32,30.459144 31.6908317,30.7856042 31.2991014,30.7856042 L25.9132491,30.7856042 C25.6392136,30.7856042 25.3915276,30.6214622 25.2755895,30.367954 L22.2559287,23.6545458 L17.2055942,38.5148692 C17.1089791,38.7957344 16.8630498,38.9854096 16.5749612,39 L16.5398284,39 Z" id="Fill-6"></path>
            </g>
        </g>
    </g>
</svg>