<?xml version="1.0" encoding="UTF-8"?>
<svg width="54px" height="56px" viewBox="0 0 54 56" version="1.1" xmlns="http://www.w3.org/2000/svg" xmlns:xlink="http://www.w3.org/1999/xlink">
    <!-- Generator: Sketch 49 (51002) - http://www.bohemiancoding.com/sketch -->
    <title>Page 1</title>
    <desc>Created with Sketch.</desc>
    <defs></defs>
    <g id="NEW" stroke="none" stroke-width="1" fill="none" fill-rule="evenodd">
        <g id="Mobile-Home-menu" transform="translate(-131.000000, -4776.000000)" fill="#F68938" stroke="#F68938">
            <g id="Page-1" transform="translate(132.000000, 4777.000000)">
                <path d="M18,25.3284519 L25.8047564,27.536247 C25.9795137,27.5855921 26.1173956,27.6970166 26.1991627,27.8593778 C26.2809299,28.0137802 26.2921528,28.20161 26.229625,28.3623795 L20.5059232,44 L36,26.0367928 L28.20326,23.8305894 C28.0397257,23.7860196 27.9018438,23.6745952 27.8200766,23.5249682 C27.7334996,23.3817082 27.7142603,23.2082045 27.7639619,23.0394761 L31.8410974,9 L18,25.3284519 Z M18.404966,48 C18.2956235,48 18.184719,47.9761518 18.0878728,47.9141465 C17.831699,47.7583383 17.7161084,47.4355928 17.8192028,47.1494146 L24.3422622,28.8848811 L16.4524219,26.593865 C16.2509193,26.5366293 16.0931538,26.3760515 16.0259862,26.1709571 C15.9650669,25.9658627 16.01349,25.7369201 16.147825,25.5747524 L32.1524386,6.22274144 C32.3414449,5.99379882 32.6647862,5.93656316 32.92096,6.07329278 C33.1833819,6.21638192 33.3114688,6.52163875 33.2255569,6.81258666 L28.6128666,23.10249 L36.5448819,25.4014555 C36.7526326,25.4634608 36.9119602,25.6240386 36.9728795,25.8291331 C37.0337989,26.040587 36.991624,26.26476 36.8510408,26.4316973 L18.8813868,47.7774169 C18.759548,47.9268656 18.581476,48 18.404966,48 Z" id="Fill-1"></path>
                <path d="M26.0322875,54 C14.0764668,54 3.63220222,46.4107647 0.0400946611,35.1134842 C-0.103451284,34.6626216 0.150780691,34.1809014 0.605631095,34.038614 C1.06566991,33.8997551 1.54646235,34.1466153 1.69000829,34.5991922 C5.05382592,45.1781782 14.8357038,52.2856934 26.0322875,52.2856934 C30.1345885,52.2856934 34.0725899,51.3325389 37.7373352,49.4519446 C38.1627846,49.2325133 38.6833548,49.3970868 38.9029974,49.8188062 C39.12264,50.2388113 38.9566109,50.7548176 38.532891,50.9725345 C34.6208316,52.9817019 30.4147625,54 26.0322875,54" id="Fill-3"></path>
                <path d="M1.83308388,16 C1.71138082,16 1.58634342,15.9730482 1.46797469,15.9140912 C1.0545177,15.7102685 0.88279968,15.2066073 1.08452668,14.7888549 C4.26881235,8.1957783 10.0405385,3.18443369 16.9209296,1.03671457 C17.3577269,0.901955726 17.8278675,1.14957511 17.9629079,1.59259481 C18.0979483,2.03729901 17.852875,2.50895497 17.4127434,2.6453983 C10.9708167,4.65667409 5.56586693,9.35133541 2.58330826,15.5266596 C2.43826488,15.826498 2.14150946,16 1.83308388,16" id="Fill-6"></path>
                <path d="M43.8417249,46 C43.6290482,46 43.4163716,45.9194336 43.2496331,45.7583007 C42.9127534,45.4291783 42.9042463,44.8874977 43.2309176,44.546376 C47.7890029,39.7980995 50.298587,33.5584871 50.298587,26.9760388 C50.298587,13.1580399 39.5507614,2.06215763 25.8305673,1.71417924 C25.3609773,1.70046581 24.9883679,1.30791876 25.0002777,0.834805292 C25.0121876,0.359977641 25.3643801,0.00514253773 25.8731026,0 C40.5239696,0.371976896 52,12.222098 52,26.9760388 C52,34.0041737 49.3202746,40.6689026 44.4525321,45.7394448 C44.2857936,45.9125769 44.06461,46 43.8417249,46" id="Fill-8"></path>
            </g>
        </g>
    </g>
</svg>