<?xml version="1.0" encoding="UTF-8"?>
<svg width="21px" height="21px" viewBox="0 0 21 21" version="1.1" xmlns="http://www.w3.org/2000/svg" xmlns:xlink="http://www.w3.org/1999/xlink">
    <!-- Generator: Sketch 49 (51002) - http://www.bohemiancoding.com/sketch -->
    <title>Group 9 Copy 3</title>
    <desc>Created with Sketch.</desc>
    <defs></defs>
    <g id="NEW" stroke="none" stroke-width="1" fill="none" fill-rule="evenodd">
        <g id="services-mobie" transform="translate(-55.000000, -1904.000000)" fill="#1D5480">
            <g id="Group-9-Copy-3" transform="translate(55.000000, 1904.000000)">
                <path d="M5.59090909,2.74311685 C3.91166139,3.83003079 2.66632422,5.51364622 1.99867994,7.45454545 L0.621212121,7.06512194 C1.41469511,4.63737854 2.97695941,2.53609797 5.10503184,1.24242424 L5.59090909,2.74311685 Z" id="Fill-1"></path>
                <path d="M19.8731326,6.79991666 C18.9221159,4.2170128 16.9995064,2.15059158 14.4593633,0.98169693 C12.4411502,0.0532550011 10.2259587,-0.218358428 8.07575758,0.174217441 L8.59869131,1.59485136 C9.06064957,1.52345163 9.52561896,1.48591156 9.98958464,1.48591156 C11.2949116,1.48591156 12.5954708,1.76758475 13.8117184,2.32725072 C15.984503,3.32709238 17.6288335,5.09441987 18.4423418,7.30364057 C19.2555991,9.51286127 19.1401722,11.8994772 18.117892,14.0238034 C17.3420229,15.6363087 16.1134799,16.9499657 14.5788049,17.8376779 L15.1014877,19.2575758 C17.0140602,18.220194 18.5442185,16.6302618 19.4939806,14.6570773 C20.6894011,12.1732989 20.8241493,9.38282051 19.8731326,6.79991666" id="Fill-3"></path>
                <path d="M9.93539889,19.001179 C6.45424204,19.0006845 3.18167963,16.7504749 1.93675005,13.1428705 C1.54326507,12.0030544 1.38895259,10.8333213 1.44631606,9.69325795 L0.032851649,9.31818182 C-0.0785567483,10.7450535 0.0904521608,12.2179135 0.584915813,13.6502246 C2.04081023,17.8687803 5.86685904,20.5 9.93658409,20.5 C10.5554933,20.5 11.1800914,20.4367044 11.8030303,20.3111021 L11.3097518,18.8822524 C10.850607,18.9613719 10.3914622,19.001179 9.93539889,19.001179" id="Fill-6"></path>
                <circle id="Oval-3" cx="10.25" cy="10.25" r="3.41666667"></circle>
            </g>
        </g>
    </g>
</svg>