<?xml version="1.0" encoding="UTF-8"?>
<svg width="87px" height="87px" viewBox="0 0 87 87" version="1.1" xmlns="http://www.w3.org/2000/svg" xmlns:xlink="http://www.w3.org/1999/xlink">
    <!-- Generator: Sketch 49 (51002) - http://www.bohemiancoding.com/sketch -->
    <title>Page 1</title>
    <desc>Created with Sketch.</desc>
    <defs></defs>
    <g id="NEW" stroke="none" stroke-width="1" fill="none" fill-rule="evenodd">
        <g id="Litigation" transform="translate(-581.000000, -2166.000000)" fill="#FFFFFF">
            <g id="Page-1" transform="translate(581.000000, 2166.000000)">
                <path d="M54,43.5 C54,49.2988892 49.2990037,54 43.5002558,54 C37.7009963,54 33,49.2988892 33,43.5 C33,37.7011108 37.7009963,33 43.5002558,33 C49.2990037,33 54,37.7011108 54,43.5" id="Fill-1"></path>
                <path d="M44,21.070491 C31.3565747,21.070491 21.0705439,31.356432 21.0705439,44.0002529 C21.0705439,56.643568 31.3565747,66.929509 44,66.929509 C56.6434253,66.929509 66.9294561,56.643568 66.9294561,44.0002529 C66.9294561,31.356432 56.6434253,21.070491 44,21.070491 M44,73 C28.0091756,73 15,59.9909379 15,44.0002529 C15,28.009568 28.0091756,15 44,15 C59.9903185,15 73,28.009568 73,44.0002529 C73,59.9909379 59.9903185,73 44,73" id="Fill-3"></path>
                <path d="M43.5,6.06976744 C22.8607674,6.06976744 6.06976744,22.8607674 6.06976744,43.5 C6.06976744,64.1392326 22.8607674,80.9302326 43.5,80.9302326 C64.1392326,80.9302326 80.9302326,64.1392326 80.9302326,43.5 C80.9302326,22.8607674 64.1392326,6.06976744 43.5,6.06976744 M43.5,87 C19.5143023,87 0,67.4856977 0,43.5 C0,19.5143023 19.5143023,0 43.5,0 C67.4862035,0 87,19.5143023 87,43.5 C87,67.4856977 67.4862035,87 43.5,87" id="Fill-5"></path>
            </g>
        </g>
    </g>
</svg>