<?xml version="1.0" encoding="UTF-8"?>
<svg width="43px" height="53px" viewBox="0 0 43 53" version="1.1" xmlns="http://www.w3.org/2000/svg" xmlns:xlink="http://www.w3.org/1999/xlink">
    <!-- Generator: Sketch 49 (51002) - http://www.bohemiancoding.com/sketch -->
    <title>Page 1</title>
    <desc>Created with Sketch.</desc>
    <defs></defs>
    <g id="NEW" stroke="none" stroke-width="1" fill="none" fill-rule="evenodd">
        <g id="Mobile-Home-menu" transform="translate(-136.000000, -4252.000000)" fill="#F68938" stroke="#F68938">
            <g id="Page-1" transform="translate(137.000000, 4253.000000)">
                <path d="M20.8933333,39 C20.3977778,39 20,38.6335505 20,38.1877036 L20,19.8184039 C20,19.3644137 20.3977778,19 20.8933333,19 C21.38,19 21.7777778,19.3644137 21.7777778,19.8184039 L21.7777778,38.1877036 C21.7777778,38.6335505 21.38,39 20.8933333,39" id="Fill-1" transform="translate(20.888889, 29.000000) scale(-1, 1) translate(-20.888889, -29.000000) "></path>
                <path d="M28.1728796,27 C27.960904,27 27.7510066,26.9153091 27.5805949,26.7501617 L21.0051955,20.0511086 L14.4214833,26.7501617 C14.0972854,27.0825737 13.5694246,27.0825737 13.2431485,26.7501617 C12.9189505,26.4198671 12.9189505,25.8905487 13.2431485,25.5602541 L20.4129108,18.2493089 C20.7371087,17.916897 21.2649695,17.916897 21.5891674,18.2493089 L28.7568515,25.5602541 C29.0810495,25.8905487 29.0810495,26.4198671 28.7568515,26.7501617 C28.5947526,26.9153091 28.3848552,27 28.1728796,27" id="Fill-3"></path>
                <path d="M37.1846268,51 L3.81537316,51 C1.71310255,51 0,49.2879994 0,47.170021 L0,3.82997897 C0,1.71966056 1.71310255,0 3.81537316,0 L28.0487158,0 C28.4664992,0 28.8079751,0.342783118 28.8079751,0.762165816 C28.8079751,1.18920847 28.4664992,1.53199159 28.0487158,1.53199159 L3.81537316,1.53199159 C2.55630002,1.53199159 1.52805695,2.56417092 1.52805695,3.82997897 L1.52805695,47.170021 C1.52805695,48.441574 2.55630002,49.4756684 3.81537316,49.4756684 L37.1846268,49.4756684 C38.4437,49.4756684 39.471943,48.441574 39.471943,47.170021 L39.471943,13.3359868 C39.471943,12.9108591 39.8153266,12.566161 40.23311,12.566161 C40.6566164,12.566161 41,12.9108591 41,13.3359868 L41,47.177681 C41,49.2879994 39.2868975,51 37.1846268,51" id="Fill-5"></path>
                <path d="M40.217355,15 L27.782645,15 C27.350438,15 27,14.6496107 27,14.2233037 L27,1.78448276 C27,1.35038932 27.350438,1 27.782645,1 C28.2090113,1 28.5594493,1.35038932 28.5594493,1.78448276 L28.5594493,13.4407675 L40.217355,13.4407675 C40.6515088,13.4407675 41,13.7911568 41,14.2174638 C41,14.6496107 40.6515088,15 40.217355,15" id="Fill-8"></path>
                <path d="M40.2198741,14 C40.021212,14 39.816707,13.9258345 39.664789,13.7698967 L27.2172502,1.28917112 C26.9212049,0.992509043 26.9289955,0.509482332 27.2328315,0.212820258 C27.5444582,-0.076235097 28.0391656,-0.0705300571 28.335211,0.228033697 L40.7827498,12.7068576 C41.0787951,13.0111264 41.0710045,13.4941531 40.7671685,13.7851102 C40.6152504,13.9258345 40.4185361,14 40.2198741,14" id="Fill-10"></path>
            </g>
        </g>
    </g>
</svg>