<?xml version="1.0" encoding="UTF-8"?>
<svg width="100px" height="66px" viewBox="0 0 100 66" version="1.1" xmlns="http://www.w3.org/2000/svg" xmlns:xlink="http://www.w3.org/1999/xlink">
    <!-- Generator: Sketch 49 (51002) - http://www.bohemiancoding.com/sketch -->
    <title>Page 1</title>
    <desc>Created with Sketch.</desc>
    <defs></defs>
    <g id="NEW" stroke="none" stroke-width="1" fill="none" fill-rule="evenodd">
        <g id="Litigation" transform="translate(-763.000000, -2376.000000)" fill="#FFFFFF">
            <g id="Page-1" transform="translate(763.000000, 2376.000000)">
                <path d="M66.8445283,61.7961337 C62.1851638,61.7961337 57.7827366,60.6877143 53.8801053,58.7308146 C61.4509567,52.6779477 66.3102395,43.3951104 66.3102395,32.9996497 C66.3102395,22.604189 61.4509567,13.3213516 53.8801053,7.26918545 C57.7827366,5.31228569 62.1851638,4.20386628 66.8445283,4.20386628 C82.7971674,4.20386628 95.776373,17.1216467 95.776373,32.9996497 C95.776373,48.8783533 82.7971674,61.7961337 66.8445283,61.7961337 M62.0866125,32.9996497 C62.0866125,42.6265035 57.3110983,51.1582501 49.9992961,56.389261 C42.6889017,51.1582501 37.9126836,42.6265035 37.9126836,32.9996497 C37.9126836,23.3734965 42.6889017,14.8410493 49.9992961,9.61073897 C57.3110983,14.8410493 62.0866125,23.3734965 62.0866125,32.9996497 M33.1554717,61.7961337 C17.2021287,61.7961337 4.22362697,48.8783533 4.22362697,32.9996497 C4.22362697,17.1216467 17.2021287,4.20386628 33.1554717,4.20386628 C37.8148362,4.20386628 42.2172634,5.31228569 46.1198947,7.26918545 C38.5490433,13.3213516 33.6890566,22.604189 33.6890566,32.9996497 C33.6890566,43.3951104 38.5490433,52.6779477 46.1198947,58.7308146 C42.2172634,60.6877143 37.8148362,61.7961337 33.1554717,61.7961337 M66.8445283,0 C60.6977432,0 54.9402357,1.67874394 49.9992961,4.59202327 C45.0597643,1.67874394 39.3015529,0 33.1554717,0 C14.8735024,0 0,14.8039151 0,32.9996497 C0,51.1960849 14.8735024,66 33.1554717,66 C39.3015529,66 45.0597643,64.3212561 49.9992961,61.4072761 C54.9402357,64.3212561 60.6977432,66 66.8445283,66 C85.1264976,66 100,51.1960849 100,32.9996497 C100,14.8039151 85.1264976,0 66.8445283,0" id="Fill-1"></path>
            </g>
        </g>
    </g>
</svg>